<?xml version="1.0" encoding="UTF-8" standalone="no"?>
<!DOCTYPE svg PUBLIC "-//W3C//DTD SVG 1.1//EN" "http://www.w3.org/Graphics/SVG/1.1/DTD/svg11.dtd">
<svg width="100%" height="100%" viewBox="0 0 469 167" version="1.1" xmlns="http://www.w3.org/2000/svg" xmlns:xlink="http://www.w3.org/1999/xlink" xml:space="preserve" xmlns:serif="http://www.serif.com/" style="fill-rule:evenodd;clip-rule:evenodd;stroke-linejoin:round;stroke-miterlimit:2;">
    <g transform="matrix(1,0,0,1,-24.7625,-178.125)">
        <rect x="24.762" y="178.125" width="468.964" height="166.299" style="fill:none;"/>
        <g transform="matrix(0.823651,0,0,0.823651,259.244,261.275)">
            <g transform="matrix(1,0,0,1,-265,-80.5)">
                <g transform="matrix(1,0,0,1,-25.8418,-436.603)">
                    <g>
                        <rect id="path2" x="179.044" y="456.165" width="2" height="90.385" style="fill:rgb(64,190,200);"/>
                        <path id="path4" d="M84.407,448.524L51.708,461.996L55.708,519.548L119.422,544.742L141.698,499.043L143.535,476.638L84.407,448.524ZM84.175,457.272L135.11,481.49L133.848,496.89L115.476,534.579L63.339,513.963L60.089,467.195L84.175,457.272Z" style="fill:rgb(64,190,200);"/>
                        <path id="path6" d="M136.32,455.556C136.32,458.082 134.273,460.13 131.747,460.13C129.221,460.13 127.174,458.082 127.174,455.556C127.174,453.031 129.221,450.983 131.747,450.983C134.273,450.983 136.32,453.031 136.32,455.556Z" style="fill:rgb(64,190,200);"/>
                        <path id="path8" d="M94.061,555.084C94.061,557.61 92.014,559.657 89.488,559.657C86.962,559.657 84.915,557.61 84.915,555.084C84.915,552.559 86.962,550.511 89.488,550.511C92.014,550.511 94.061,552.559 94.061,555.084Z" style="fill:rgb(64,190,200);"/>
                        <path id="path10" d="M146.036,527.71C146.036,530.236 143.989,532.283 141.463,532.283C138.938,532.283 136.89,530.236 136.89,527.71C136.89,525.184 138.938,523.137 141.463,523.137C143.989,523.137 146.036,525.185 146.036,527.71Z" style="fill:rgb(64,190,200);"/>
                        <path id="path12" d="M34.988,454.752C34.988,457.278 32.941,459.325 30.415,459.325C27.89,459.325 25.842,457.278 25.842,454.752C25.842,452.226 27.89,450.179 30.415,450.179C32.941,450.179 34.988,452.226 34.988,454.752Z" style="fill:rgb(64,190,200);"/>
                        <path id="path14" d="M66.873,444.606C66.873,449.026 63.29,452.609 58.87,452.609C54.45,452.608 50.867,449.026 50.867,444.606C50.867,440.186 54.45,436.603 58.87,436.603C63.29,436.603 66.873,440.186 66.873,444.606Z" style="fill:rgb(64,190,200);"/>
                        <path id="path16" d="M110.16,505.621C108.788,505.621 107.551,504.674 107.236,503.279L103.247,485.567L85.534,481.578C83.918,481.214 82.902,479.608 83.266,477.992C83.631,476.375 85.245,475.367 86.852,475.725L108.266,480.548L113.09,501.961C113.454,503.577 112.438,505.183 110.822,505.547C110.6,505.597 110.379,505.621 110.16,505.621Z" style="fill:rgb(64,190,200);"/>
                        <path id="path18" d="M82.246,509.567C81.478,509.567 80.711,509.274 80.125,508.689C78.953,507.517 78.953,505.617 80.125,504.446L103.636,480.937C104.808,479.765 106.706,479.765 107.878,480.937C109.05,482.108 109.05,484.008 107.878,485.179L84.367,508.689C83.781,509.274 83.013,509.567 82.246,509.567Z" style="fill:rgb(64,190,200);"/>
                        <path id="path20" d="M213.927,460.128C213.927,460.128 214.885,459.718 216.8,459.718C218.762,459.718 219.765,460.128 219.765,460.128L219.765,487.539L232.855,487.539C233.174,488.269 233.311,489.181 233.311,490.047C233.311,490.914 233.128,491.735 232.855,492.556L213.927,492.556L213.927,460.128Z" style="fill:rgb(30,47,102);"/>
                        <path id="path22" d="M242.93,492.191C242.93,492.191 241.927,492.556 240.057,492.556C238.05,492.556 237.184,492.191 237.184,492.191L237.184,468.931C237.184,468.931 238.05,468.566 240.057,468.566C241.927,468.566 242.93,468.931 242.93,468.931L242.93,492.191ZM242.93,464.552C242.93,464.552 241.927,464.917 240.057,464.917C238.05,464.917 237.184,464.552 237.184,464.552L237.184,459.307C237.184,459.307 238.05,458.943 240.057,458.943C241.927,458.943 242.93,459.307 242.93,459.307L242.93,464.552Z" style="fill:rgb(30,47,102);"/>
                        <path id="path24" d="M258.572,472.762C255.699,472.762 254.011,474.13 254.011,480.561C254.011,486.991 255.699,488.36 258.572,488.36C261.126,488.36 262.677,486.307 262.677,483.434L262.677,477.505C262.586,474.723 261.035,472.762 258.572,472.762ZM265.596,458.349C267.512,458.349 268.424,458.714 268.424,458.714L268.424,492.191C268.424,492.191 267.42,492.556 266.006,492.556C264.547,492.556 263.361,492.191 263.361,492.191L262.997,490.23C261.719,492.008 259.712,493.012 256.52,493.012C251.412,493.012 248.082,489.865 248.082,480.561C248.082,471.256 251.412,468.11 256.52,468.11C259.439,468.11 261.354,468.931 262.677,470.481L262.677,458.714C262.677,458.714 263.681,458.349 265.596,458.349Z" style="fill:rgb(30,47,102);"/>
                        <path id="path26" d="M283.836,472.579C281.51,472.579 279.777,474.13 279.367,478.372L287.394,478.372C287.439,477.87 287.485,477.368 287.485,476.866C287.485,474.495 286.709,472.579 283.836,472.579ZM279.321,482.339C279.731,486.991 281.784,488.177 284.977,488.177C288.032,488.176 290.176,487.083 290.176,487.083C291.133,487.995 291.863,489.546 291.909,491.142C291.909,491.142 289.218,493.012 284.155,493.012C276.721,493.012 273.437,488.679 273.437,480.424C273.437,471.804 277.542,468.11 283.836,468.11C289.492,468.11 293.186,471.028 293.186,477.55C293.186,480.469 292.684,482.339 292.684,482.339L279.321,482.339Z" style="fill:rgb(30,47,102);"/>
                        <path id="path28" d="M308.735,468.155C310.103,468.155 311.334,468.429 312.748,469.341C312.566,471.439 311.79,472.899 310.286,474.221C309.464,473.537 308.552,473.218 307.64,473.218C306.181,473.218 304.767,474.084 303.672,475.589L303.672,492.191C303.672,492.191 302.669,492.556 300.799,492.556C298.792,492.556 297.925,492.191 297.925,492.191L297.925,468.931C297.925,468.931 298.792,468.566 300.799,468.566C302.669,468.566 303.672,468.931 303.672,468.931L303.672,471.53C305.269,469.341 306.956,468.155 308.735,468.155Z" style="fill:rgb(30,47,102);"/>
                        <path id="path30" d="M332.357,487.858C332.357,487.858 332.722,488.725 332.722,490.23C332.722,491.598 332.357,492.556 332.357,492.556L315.072,492.556C314.843,491.78 314.752,490.914 314.752,490.093C314.752,489.318 314.843,488.542 315.072,487.858L326.428,473.263L315.665,473.263C315.665,473.263 315.345,472.214 315.345,470.846C315.345,469.432 315.665,468.566 315.665,468.566L332.449,468.566C332.676,469.159 332.768,469.934 332.768,470.755C332.768,471.622 332.676,472.534 332.449,473.263L321.137,487.858L332.357,487.858Z" style="fill:rgb(30,47,102);"/>
                        <path id="path32" d="M350.004,495.155C348.226,500.811 346.539,503.958 340.791,503.958C339.196,503.958 338.146,503.456 338.146,503.456C338.146,503.456 337.736,502.499 337.736,501.313C337.736,500.036 338.146,499.032 338.146,499.032C338.146,499.032 339.287,499.214 340.245,499.214C342.479,499.214 343.437,498.941 344.851,494.335L345.398,492.556C344.851,492.556 344.212,492.464 343.62,492.191L335.41,468.931C335.41,468.931 336.504,468.566 338.374,468.566C340.335,468.566 341.339,468.931 341.339,468.931L345.626,481.153C346.812,484.574 347.222,486.901 347.222,486.901L347.405,486.901C347.405,486.901 347.816,484.62 348.865,481.153L352.559,468.931C352.559,468.931 353.471,468.566 355.341,468.566C356.983,468.566 358.032,468.931 358.032,468.931L350.004,495.155Z" style="fill:rgb(30,47,102);"/>
                        <path id="path34" d="M371.391,460.128C371.391,460.128 372.349,459.718 374.265,459.718C376.226,459.718 377.229,460.128 377.229,460.128L377.229,492.145C377.229,492.145 376.18,492.556 374.31,492.556C372.212,492.556 371.391,492.145 371.391,492.145L371.391,460.128Z" style="fill:rgb(30,47,102);"/>
                        <path id="path36" d="M402.768,492.191C402.768,492.191 401.765,492.556 399.895,492.556C397.888,492.556 397.021,492.191 397.021,492.191L397.021,476.046C397.021,474.084 395.972,472.762 393.373,472.762C391.868,472.762 390.454,473.4 389.359,474.449L389.359,492.191C389.359,492.191 388.356,492.556 386.486,492.556C384.479,492.556 383.613,492.191 383.613,492.191L383.613,468.931C383.613,468.931 384.479,468.566 386.486,468.566C388.356,468.565 389.359,468.931 389.359,468.931L389.359,470.299C390.956,468.839 393.099,468.11 395.608,468.11C400.305,468.11 402.768,470.937 402.768,475.042L402.768,492.191Z" style="fill:rgb(30,47,102);"/>
                        <path id="path38" d="M427.712,492.191C427.712,492.191 426.709,492.556 424.839,492.556C422.832,492.556 421.965,492.191 421.965,492.191L421.965,476.046C421.965,474.084 420.916,472.762 418.317,472.762C416.812,472.762 415.398,473.4 414.303,474.449L414.303,492.191C414.303,492.191 413.3,492.556 411.43,492.556C409.423,492.556 408.557,492.191 408.557,492.191L408.557,468.931C408.557,468.931 409.423,468.566 411.43,468.566C413.3,468.565 414.303,468.931 414.303,468.931L414.303,470.299C415.9,468.839 418.043,468.11 420.552,468.11C425.249,468.11 427.712,470.937 427.712,475.042L427.712,492.191Z" style="fill:rgb(30,47,102);"/>
                        <path id="path40" d="M443.034,472.488C440.251,472.488 438.427,474.084 438.427,480.561C438.427,487.037 440.251,488.633 443.034,488.633C445.816,488.633 447.594,487.037 447.594,480.561C447.594,474.084 445.816,472.488 443.034,472.487L443.034,472.488ZM443.034,468.11C449.509,468.11 453.523,471.53 453.523,480.561C453.523,489.591 449.464,493.012 443.034,493.012C436.603,493.012 432.543,489.591 432.543,480.561C432.543,471.53 436.603,468.11 443.034,468.11Z" style="fill:rgb(30,47,102);"/>
                        <path id="path42" d="M474.591,481.336C473.908,478.645 473.633,476.274 473.497,474.358L473.315,474.358C473.177,476.319 472.904,478.691 472.174,481.336L469.392,492.191C468.343,492.464 467.203,492.556 466.017,492.556C464.832,492.556 463.6,492.464 462.551,492.191L456.029,468.931C456.029,468.931 457.078,468.566 458.902,468.566C460.864,468.566 461.365,468.931 461.365,468.931L465.059,482.157C465.561,483.982 465.834,485.623 466.017,486.946L466.154,486.946C466.382,485.578 466.656,484.027 467.158,482.111L470.533,468.931C470.533,468.931 471.992,468.566 473.725,468.566C475.595,468.566 476.552,468.931 476.552,468.931L479.79,482.066C480.247,483.982 480.521,485.623 480.703,486.946L480.84,486.946C481.068,485.623 481.433,484.072 481.98,482.111L485.674,468.931C485.674,468.931 486.586,468.566 488.183,468.566C489.915,468.566 490.6,468.931 490.6,468.931L484.078,492.191C482.938,492.464 481.889,492.556 480.703,492.556C479.517,492.556 478.468,492.464 477.283,492.191L474.591,481.336Z" style="fill:rgb(30,47,102);"/>
                        <path id="path44" d="M502.317,481.701C499.991,481.701 498.623,482.659 498.623,485.122C498.623,487.721 499.854,488.633 501.907,488.633C505.099,488.633 506.102,485.669 506.102,483.252L506.102,481.883C504.962,481.792 503.639,481.701 502.317,481.701ZM502.727,468.11C509.386,468.11 511.849,470.846 511.849,476.593L511.849,492.191C511.849,492.191 511.21,492.556 509.614,492.556C508.201,492.556 507.289,492.191 507.289,492.191L506.421,489.728C505.373,491.872 503.046,493.012 499.763,493.012C495.43,493.012 492.694,490.458 492.694,485.122C492.694,479.968 495.932,477.87 501.587,477.87C503.183,477.87 504.78,477.961 506.102,478.098L506.102,477.094C506.102,474.814 505.282,472.944 501.998,472.944C498.988,472.944 496.16,474.039 496.16,474.039C496.16,474.039 495.43,473.583 494.882,472.351C494.335,471.12 494.518,469.934 494.518,469.934C494.518,469.934 497.893,468.11 502.727,468.11Z" style="fill:rgb(30,47,102);"/>
                        <path id="path46" d="M522.564,480.561C522.564,485.988 524.205,488.177 528.082,488.177C530.409,488.176 532.187,487.539 532.187,487.539C533.145,488.405 533.738,490.047 533.784,491.598C533.784,491.598 531.822,493.012 526.942,493.012C519.964,493.012 516.68,488.679 516.68,480.561C516.68,472.443 519.964,468.11 526.942,468.11C531.64,468.11 533.328,469.296 533.328,469.296C533.328,470.8 532.734,472.397 531.731,473.355C531.731,473.355 530.18,472.762 527.9,472.762C523.977,472.762 522.564,475.133 522.564,480.561Z" style="fill:rgb(30,47,102);"/>
                        <path id="path48" d="M543.861,464.552C543.861,464.552 542.857,464.917 540.987,464.917C538.98,464.917 538.114,464.552 538.114,464.552L538.114,459.307C538.114,459.307 538.98,458.943 540.987,458.943C542.857,458.943 543.861,459.307 543.861,459.307L543.861,464.552ZM538.114,468.931C538.114,468.931 538.98,468.566 540.987,468.566C542.857,468.566 543.861,468.931 543.861,468.931L543.861,496.569C543.861,501.267 541.535,503.958 536.974,503.958C535.058,503.958 533.736,503.547 533.736,503.547C533.736,503.547 533.553,502.955 533.553,502.225C533.553,500.218 534.146,499.26 534.146,499.26C534.146,499.26 534.875,499.443 535.651,499.443C537.247,499.443 538.114,498.622 538.114,496.752L538.114,468.931Z" style="fill:rgb(30,47,102);"/>
                        <path id="path50" d="M555.716,492.191C555.716,492.191 554.712,492.556 552.842,492.556C550.835,492.556 549.969,492.191 549.969,492.191L549.969,468.931C549.969,468.931 550.835,468.566 552.842,468.566C554.712,468.566 555.716,468.931 555.716,468.931L555.716,492.191ZM555.716,464.552C555.716,464.552 554.712,464.917 552.842,464.917C550.835,464.917 549.969,464.552 549.969,464.552L549.969,459.307C549.969,459.307 550.835,458.943 552.842,458.943C554.712,458.943 555.716,459.307 555.716,459.307L555.716,464.552Z" style="fill:rgb(30,47,102);"/>
                        <path id="path52" d="M226.059,528.795C230.346,528.795 232.764,525.966 232.764,521.451C232.764,516.754 230.346,513.926 226.059,513.926L217.257,513.925L217.257,528.795L226.059,528.795ZM217.257,544.484C217.257,544.484 216.892,544.667 216.116,544.667C215.25,544.667 214.885,544.484 214.885,544.484L214.885,511.828L226.15,511.828C231.897,511.828 235.272,515.705 235.272,521.406C235.272,527.061 231.897,530.938 226.15,530.938L217.257,530.938L217.257,544.484Z" style="fill:rgb(40,54,108);"/>
                        <path id="path54" d="M249.316,522.135C244.938,522.135 242.201,524.598 242.201,532.671C242.201,540.744 244.938,543.207 249.316,543.207C253.695,543.207 256.431,540.744 256.431,532.671C256.431,524.598 253.695,522.135 249.316,522.135ZM249.316,520.22C255.291,520.22 258.803,523.641 258.803,532.671C258.803,541.702 255.291,545.123 249.316,545.123C243.341,545.123 239.83,541.702 239.83,532.671C239.83,523.641 243.341,520.22 249.316,520.22Z" style="fill:rgb(40,54,108);"/>
                        <path id="path56" d="M289.676,520.22C293.781,520.22 296.153,522.911 296.153,527.016L296.153,544.484C296.153,544.484 295.788,544.667 295.012,544.667C294.191,544.667 293.872,544.484 293.872,544.484L293.872,527.517C293.872,523.823 292.185,522.181 288.855,522.181C286.165,522.181 283.382,523.96 281.968,527.426L281.968,544.484C281.968,544.484 281.603,544.667 280.828,544.667C280.053,544.667 279.688,544.484 279.688,544.484L279.688,527.517C279.688,523.823 278,522.181 274.671,522.181C272.026,522.181 269.244,524.097 267.875,527.335L267.875,544.484C267.875,544.484 267.465,544.667 266.689,544.667C265.914,544.667 265.549,544.484 265.549,544.484L265.549,520.859C265.549,520.859 265.914,520.676 266.689,520.676C267.465,520.676 267.875,520.859 267.875,520.859L267.875,524.325C269.563,521.771 272.163,520.22 275.492,520.22C278.411,520.22 280.737,521.588 281.603,524.69C283.428,521.907 286.119,520.22 289.676,520.22Z" style="fill:rgb(40,54,108);"/>
                        <path id="path58" d="M312.247,522.135C307.869,522.135 305.132,524.598 305.132,532.671C305.132,540.744 307.869,543.207 312.247,543.207C316.625,543.207 319.362,540.744 319.362,532.671C319.362,524.598 316.625,522.135 312.247,522.135ZM312.247,520.22C318.221,520.22 321.734,523.641 321.734,532.671C321.734,541.702 318.221,545.123 312.247,545.123C306.272,545.123 302.76,541.702 302.76,532.671C302.76,523.641 306.272,520.22 312.247,520.22Z" style="fill:rgb(40,54,108);"/>
                        <path id="path60" d="M337.374,520.266C339.563,520.266 340.931,521.132 341.206,521.315C341.16,522.135 340.794,522.819 340.111,523.23C339.062,522.683 338.195,522.409 336.827,522.409C334.456,522.409 332.22,524.598 330.761,527.837L330.761,544.484C330.761,544.484 330.442,544.667 329.621,544.667C328.799,544.667 328.48,544.484 328.48,544.484L328.48,520.859C328.48,520.859 328.799,520.676 329.621,520.676C330.442,520.676 330.761,520.859 330.761,520.859L330.761,525.054C332.813,520.995 335.458,520.266 337.374,520.266Z" style="fill:rgb(40,54,108);"/>
                        <path id="path62" d="M360.54,542.66C360.54,542.66 360.723,542.933 360.723,543.663C360.723,544.347 360.54,544.667 360.54,544.667L344.349,544.667C344.304,544.53 344.167,544.255 344.167,543.618C344.167,543.024 344.304,542.797 344.349,542.66L357.895,522.683L345.399,522.683C345.399,522.683 345.216,522.363 345.216,521.679C345.216,520.95 345.399,520.676 345.399,520.676L360.404,520.676C360.45,520.813 360.586,521.087 360.586,521.634C360.586,522.227 360.45,522.546 360.404,522.683L346.904,542.66L360.54,542.66Z" style="fill:rgb(40,54,108);"/>
                        <path id="path64" d="M374.083,532.808C369.705,532.808 367.652,534.313 367.652,538.053C367.652,541.611 369.705,543.162 372.897,543.162C377.23,543.162 380.286,540.014 380.286,535.225L380.286,533.218C379.283,533.127 376.637,532.808 374.083,532.808ZM374.63,520.22C381.153,520.22 382.566,523.549 382.566,529.707L382.566,544.484C382.566,544.484 382.292,544.667 381.654,544.667C381.061,544.667 380.697,544.484 380.697,544.484L380.332,540.653C378.963,543.526 376.089,545.123 372.304,545.123C368.108,545.123 365.235,542.66 365.235,538.053C365.235,533.401 367.971,531.029 373.718,531.029C376.683,531.029 379.237,531.303 380.286,531.44L380.286,528.339C380.286,523.823 378.325,522.227 374.357,522.227C370.845,522.227 367.79,523.413 367.79,523.413C367.652,523.321 367.378,523.093 367.196,522.683C367.014,522.227 367.014,521.816 367.059,521.634C367.059,521.634 370.571,520.22 374.63,520.22Z" style="fill:rgb(40,54,108);"/>
                        <path id="path66" d="M403.906,544.484C403.906,544.484 403.586,544.667 402.765,544.667C401.945,544.667 401.625,544.484 401.625,544.484L401.625,520.859C401.625,520.859 401.945,520.676 402.765,520.676C403.586,520.676 403.906,520.859 403.906,520.859L403.906,544.484ZM404.225,515.021C404.225,515.021 403.723,515.203 402.765,515.203C401.807,515.203 401.306,515.021 401.306,515.021L401.306,512.466C401.306,512.466 401.807,512.284 402.765,512.284C403.723,512.284 404.225,512.466 404.225,512.466L404.225,515.021Z" style="fill:rgb(40,54,108);"/>
                        <path id="path68" d="M442.168,512.01C442.305,511.965 442.761,511.828 443.445,511.828C444.083,511.828 444.54,511.965 444.722,512.01L433.958,527.38L446.044,544.484C446.044,544.484 445.588,544.667 444.676,544.667C443.764,544.667 443.217,544.484 443.217,544.484L431.998,528.657L426.25,528.657L426.25,544.484C426.25,544.484 425.886,544.667 425.065,544.667C424.29,544.667 423.879,544.484 423.879,544.484L423.879,512.01C423.879,512.01 424.29,511.828 425.111,511.828C425.886,511.828 426.25,512.01 426.25,512.01L426.25,526.56L431.952,526.56L442.168,512.01Z" style="fill:rgb(40,54,108);"/>
                        <path id="path70" d="M450.465,520.859C450.465,520.859 450.83,520.676 451.605,520.676C452.426,520.676 452.746,520.859 452.746,520.859L452.746,537.825C452.746,541.474 454.616,543.162 458.218,543.162C461.046,543.162 464.01,541.292 465.516,538.007L465.516,520.859C465.516,520.859 465.88,520.676 466.656,520.676C467.431,520.676 467.796,520.859 467.796,520.859L467.796,544.484C467.796,544.484 467.431,544.667 466.656,544.667C465.88,544.667 465.516,544.484 465.516,544.484L465.516,540.972C463.646,543.526 460.864,545.123 457.398,545.123C453.065,545.123 450.465,542.431 450.465,538.327L450.465,520.859Z" style="fill:rgb(40,54,108);"/>
                        <path id="path72" d="M478.328,514.884C478.328,514.884 477.872,515.066 476.914,515.066C475.911,515.066 475.455,514.884 475.455,514.884L475.455,512.33C475.455,512.33 475.911,512.147 476.914,512.147C477.872,512.147 478.328,512.33 478.328,512.33L478.328,514.884ZM475.774,520.859C475.774,520.859 476.047,520.676 476.914,520.676C477.689,520.676 478.054,520.859 478.054,520.859L478.054,548.68C478.054,553.743 475.728,556.069 471.897,556.069C469.981,556.069 469.206,555.658 469.206,555.658C469.206,555.658 469.115,555.43 469.115,555.111C469.115,554.29 469.388,553.924 469.388,553.924C469.388,553.924 470.118,554.107 471.349,554.107C474.314,554.107 475.774,552.602 475.774,548.862L475.774,520.859Z" style="fill:rgb(40,54,108);"/>
                        <path id="path74" d="M493.241,532.808C488.862,532.808 486.809,534.313 486.809,538.053C486.809,541.611 488.862,543.162 492.054,543.162C496.387,543.162 499.443,540.014 499.443,535.225L499.443,533.218C498.44,533.127 495.794,532.808 493.241,532.808ZM493.788,520.22C500.31,520.22 501.723,523.549 501.723,529.707L501.723,544.484C501.723,544.484 501.45,544.667 500.811,544.667C500.218,544.667 499.854,544.484 499.854,544.484L499.489,540.653C498.121,543.526 495.248,545.123 491.461,545.123C487.265,545.123 484.392,542.66 484.392,538.053C484.392,533.401 487.128,531.029 492.875,531.029C495.84,531.029 498.394,531.303 499.443,531.44L499.443,528.339C499.443,523.823 497.482,522.227 493.514,522.227C490.002,522.227 486.947,523.413 486.947,523.413C486.809,523.321 486.536,523.093 486.353,522.683C486.171,522.227 486.171,521.816 486.216,521.634C486.216,521.634 489.728,520.22 493.788,520.22Z" style="fill:rgb(40,54,108);"/>
                        <path id="path76" d="M525.026,529.251C523.794,525.374 523.567,523.914 523.521,523.549L523.384,523.549C523.338,523.914 523.065,525.42 521.743,529.251L516.68,544.484C516.497,544.53 516.132,544.667 515.585,544.667C514.993,544.667 514.627,544.53 514.4,544.484L506.783,520.859C506.783,520.859 507.194,520.676 507.968,520.676C508.79,520.676 509.063,520.859 509.063,520.859L514.627,537.917C515.312,540.151 515.494,541.519 515.539,541.793L515.676,541.793C515.722,541.519 515.951,540.105 516.68,537.917L522.335,520.859C522.335,520.859 522.746,520.676 523.476,520.676C524.296,520.676 524.616,520.859 524.616,520.859L530.271,537.825C531.001,540.105 531.138,541.519 531.183,541.793L531.32,541.793C531.366,541.519 531.594,540.197 532.324,537.871L537.842,520.859C537.842,520.859 538.207,520.676 538.891,520.676C539.666,520.676 539.986,520.859 539.986,520.859L532.37,544.484C532.141,544.53 531.822,544.667 531.229,544.667C530.682,544.667 530.317,544.53 530.089,544.484L525.026,529.251Z" style="fill:rgb(40,54,108);"/>
                        <path id="path78" d="M214.019,566.949C214.019,566.949 217.348,565.307 222.365,565.307C227.382,565.307 231.486,567.451 231.486,573.197C231.486,578.442 228.203,580.495 222.775,583.779C219.628,585.694 215.113,587.61 215.113,592.946C215.113,593.904 215.204,594.543 215.204,594.588L230.848,594.588C230.894,594.724 231.03,595.044 231.03,595.682C231.03,596.321 230.894,596.64 230.848,596.777L213.106,596.777C213.106,596.777 212.832,595.317 212.832,593.721C212.832,586.606 217.439,584.691 221.635,582C225.922,579.263 229.023,577.667 229.023,573.243C229.023,570.461 227.747,567.314 221.954,567.314C218.123,567.314 214.703,568.682 214.703,568.682C214.201,568.317 213.973,567.724 214.019,566.949Z" style="fill:rgb(40,54,108);"/>
                        <path id="path80" d="M240.012,581.27C240.012,591.168 242.794,595.18 248.404,595.18C254.105,595.18 256.842,591.168 256.842,581.27C256.842,571.328 254.105,567.359 248.404,567.359C242.794,567.359 240.012,571.328 240.012,581.27ZM237.549,581.27C237.549,570.05 241.38,565.307 248.404,565.307C255.428,565.307 259.35,569.914 259.35,581.27C259.35,592.627 255.428,597.233 248.404,597.233C241.38,597.233 237.549,592.627 237.549,581.27Z" style="fill:rgb(40,54,108);"/>
                        <path id="path82" d="M213.353,566.799C213.353,566.799 216.682,565.157 221.7,565.157C226.717,565.157 230.821,567.3 230.821,573.047C230.821,578.292 227.537,580.344 222.11,583.629C218.963,585.544 214.448,587.46 214.448,592.796C214.448,593.754 214.539,594.392 214.539,594.437L230.183,594.437C230.228,594.574 230.365,594.893 230.365,595.532C230.365,596.171 230.228,596.49 230.183,596.627L212.441,596.627C212.441,596.627 212.167,595.167 212.167,593.571C212.167,586.456 216.774,584.541 220.97,581.849C225.257,579.113 228.358,577.516 228.358,573.092C228.358,570.31 227.081,567.164 221.289,567.164C217.458,567.164 214.037,568.532 214.037,568.532C213.536,568.167 213.307,567.574 213.353,566.799Z" style="fill:rgb(40,54,108);"/>
                        <path id="path84" d="M239.347,581.12C239.347,591.017 242.129,595.03 247.739,595.03C253.44,595.03 256.177,591.017 256.177,581.12C256.177,571.177 253.44,567.209 247.739,567.209C242.129,567.209 239.347,571.177 239.347,581.12ZM236.884,581.12C236.884,569.9 240.715,565.157 247.739,565.157C254.763,565.157 258.685,569.763 258.685,581.12C258.685,592.476 254.763,597.083 247.739,597.083C240.715,597.083 236.884,592.476 236.884,581.12Z" style="fill:rgb(40,54,108);"/>
                        <path id="path86" d="M263.809,566.799C263.809,566.799 267.138,565.157 272.156,565.157C277.174,565.157 281.277,567.3 281.277,573.047C281.278,578.292 277.993,580.344 272.567,583.629C269.42,585.544 264.904,587.46 264.904,592.796C264.904,593.754 264.995,594.392 264.995,594.437L280.64,594.437C280.685,594.574 280.822,594.893 280.822,595.532C280.822,596.171 280.684,596.49 280.64,596.627L262.898,596.627C262.898,596.627 262.623,595.167 262.623,593.571C262.623,586.456 267.231,584.541 271.426,581.849C275.714,579.113 278.814,577.516 278.814,573.092C278.815,570.31 277.537,567.164 271.746,567.164C267.915,567.164 264.493,568.532 264.493,568.532C263.993,568.167 263.764,567.574 263.809,566.799Z" style="fill:rgb(40,54,108);"/>
                        <path id="path88" d="M289.803,581.12C289.803,591.017 292.585,595.03 298.195,595.03C303.896,595.03 306.634,591.017 306.634,581.12C306.634,571.177 303.896,567.209 298.195,567.209C292.586,567.209 289.803,571.177 289.803,581.12ZM287.34,581.12C287.34,569.9 291.171,565.157 298.195,565.157C305.22,565.157 309.141,569.763 309.141,581.12C309.142,592.476 305.219,597.083 298.195,597.083C291.171,597.083 287.34,592.476 287.34,581.12Z" style="fill:rgb(40,54,108);"/>
                    </g>
                </g>
            </g>
        </g>
    </g>
</svg>
