<?xml version="1.0" encoding="UTF-8" standalone="no"?>
<!DOCTYPE svg PUBLIC "-//W3C//DTD SVG 1.1//EN" "http://www.w3.org/Graphics/SVG/1.1/DTD/svg11.dtd">
<svg width="100%" height="100%" viewBox="0 0 114 123" version="1.1" xmlns="http://www.w3.org/2000/svg" xmlns:xlink="http://www.w3.org/1999/xlink" xml:space="preserve" xmlns:serif="http://www.serif.com/" style="fill-rule:evenodd;clip-rule:evenodd;stroke-linejoin:round;stroke-miterlimit:2;">
    <g>
        <path d="M44.13,102.06C42.99,102.09 41.99,101.25 41.83,100.1C41.66,98.9 42.47,97.79 43.65,97.56C42.35,90.19 38.8,86.13 35.05,81.84C32.13,78.5 29.1,75.03 26.71,69.92C24.36,64.89 23.07,59.69 23.11,54.29C23.16,48.89 24.53,43.33 27.51,37.58C27.53,37.54 27.55,37.51 27.57,37.47C31.48,30.85 36.95,26.43 43.04,23.95C48.15,21.86 53.7,21.15 59.14,21.65C64.56,22.15 69.87,23.85 74.51,26.59C80.42,30.08 85.26,35.26 87.93,41.8C89.37,45.34 90.35,49.29 90.47,53.62C90.59,57.93 89.85,62.58 87.86,67.5C85.2,74.09 81.68,78.18 78.39,82.01C75.36,85.54 72.54,88.82 70.97,93.85C71.86,94.06 72.56,94.79 72.7,95.75C72.87,96.99 72,98.14 70.76,98.31L69.99,98.42C69.85,99.51 69.76,100.68 69.72,101.93L69.97,101.89C71.21,101.72 72.36,102.59 72.53,103.83C72.7,105.07 71.83,106.22 70.59,106.39L69.81,106.5C69.82,106.65 69.83,106.8 69.84,106.95C69.91,107.83 69.92,108.68 69.87,109.49L70,109.47C71.25,109.32 72.38,110.21 72.54,111.45C72.69,112.7 71.8,113.83 70.56,113.99L68.88,114.2C67.68,117.31 65.54,119.68 63.01,121.14C61.27,122.15 59.34,122.73 57.4,122.85C55.43,122.97 53.44,122.6 51.62,121.72C49.54,120.7 47.68,119.01 46.33,116.58C45.68,116.25 45.2,115.61 45.1,114.83C45.06,114.52 45.09,114.22 45.17,113.94C44.78,112.78 44.49,111.51 44.3,110.11L44.23,110.12C42.99,110.29 41.84,109.42 41.67,108.18C41.5,106.94 42.37,105.79 43.61,105.62L44.15,105.54C44.19,104.32 44.18,103.16 44.13,102.06ZM59.42,65.9C59.42,64.97 59.2,64.25 58.73,63.72C58.27,63.19 57.48,62.71 56.33,62.23C55.2,61.77 54.13,61.29 53.17,60.82C52.21,60.34 51.37,59.79 50.67,59.16C49.97,58.53 49.44,57.81 49.06,56.98C48.68,56.16 48.51,55.16 48.51,53.98C48.51,52.01 49.18,50.39 50.5,49.13C51.82,47.86 53.59,47.11 55.8,46.9L55.8,44.26L58.58,44.26L58.58,46.97C60.71,47.28 62.39,48.15 63.61,49.59C64.83,51.03 65.45,52.85 65.45,55.06L59.53,55.06C59.53,53.84 59.29,52.92 58.83,52.26C58.37,51.61 57.7,51.28 56.84,51.28C56.07,51.28 55.47,51.52 55.06,52C54.63,52.48 54.43,53.15 54.43,53.99C54.43,54.85 54.67,55.53 55.17,56.05C55.67,56.56 56.44,57.04 57.52,57.51C58.6,57.97 59.63,58.45 60.59,58.93C61.55,59.43 62.37,59.99 63.08,60.61C63.78,61.24 64.33,61.98 64.73,62.82C65.12,63.66 65.33,64.66 65.33,65.84C65.33,67.83 64.7,69.46 63.43,70.71C62.16,71.96 60.44,72.7 58.27,72.91L58.27,75.38L55.49,75.38L55.49,72.9C52.95,72.63 51,71.77 49.64,70.29C48.28,68.81 47.6,66.88 47.6,64.46L53.5,64.46C53.5,65.8 53.79,66.79 54.37,67.5C54.95,68.19 55.79,68.55 56.87,68.55C57.66,68.55 58.28,68.31 58.74,67.85C59.19,67.39 59.43,66.73 59.43,65.91L59.42,65.91L59.42,65.9ZM2.18,58.86C1.01,58.89 0.04,57.98 0,56.81C-0.04,55.64 0.88,54.67 2.05,54.63L10.75,54.33C11.92,54.29 12.89,55.21 12.93,56.38C12.97,57.55 12.05,58.52 10.88,58.56L2.18,58.86ZM110.68,50.25C111.84,50.13 112.88,50.98 113,52.14C113.12,53.3 112.27,54.34 111.11,54.46L102.45,55.37C101.29,55.49 100.25,54.64 100.13,53.48C100.01,52.32 100.86,51.28 102.02,51.16L110.68,50.25ZM94.91,14.78C95.56,13.81 96.87,13.55 97.84,14.2C98.81,14.85 99.07,16.16 98.42,17.13L93.58,24.37C92.93,25.34 91.62,25.6 90.65,24.95C89.68,24.3 89.42,22.99 90.07,22.02L94.91,14.78ZM57.63,2.06C57.66,0.89 58.63,-0.03 59.79,0C60.95,0.03 61.88,1 61.85,2.16L61.63,10.86C61.6,12.03 60.63,12.95 59.47,12.92C58.3,12.89 57.38,11.92 57.41,10.76L57.63,2.06ZM13.88,15.53C13.02,14.73 12.98,13.39 13.77,12.54C14.57,11.68 15.91,11.64 16.76,12.43L23.13,18.37C23.99,19.17 24.03,20.51 23.24,21.36C22.44,22.22 21.1,22.26 20.25,21.47L13.88,15.53ZM47.88,96.95L66.37,94.32C67.96,87.62 71.42,83.59 75.17,79.24C78.25,75.66 81.53,71.84 83.93,65.9C85.69,61.55 86.34,57.47 86.24,53.71C86.14,49.96 85.28,46.5 84,43.37C81.7,37.74 77.49,33.26 72.35,30.22C68.24,27.79 63.55,26.28 58.76,25.85C53.99,25.41 49.12,26.04 44.63,27.87C39.37,30.02 34.64,33.84 31.24,39.59C28.6,44.71 27.38,49.61 27.34,54.32C27.3,59.06 28.45,63.65 30.54,68.12C32.67,72.68 35.51,75.92 38.23,79.04C42.47,83.9 46.48,88.49 47.88,96.95ZM65.62,99.02L48.35,101.47C48.4,102.57 48.42,103.72 48.4,104.94L65.45,102.52C65.47,101.29 65.52,100.12 65.62,99.02ZM48.49,109.52C48.61,110.44 48.79,111.28 49.02,112.06L65.57,110.02C65.68,109.16 65.7,108.25 65.62,107.28L65.62,107.26L65.61,107.09L48.49,109.52ZM51.37,116.36C52.01,117.03 52.72,117.55 53.47,117.91C54.62,118.47 55.89,118.7 57.14,118.63C58.42,118.55 59.71,118.16 60.88,117.48C61.98,116.84 62.97,115.95 63.76,114.83L51.37,116.36Z" style="fill:rgb(6,81,160);fill-rule:nonzero;"/>
    </g>
</svg>
