<?xml version="1.0" encoding="UTF-8" standalone="no"?>
<!DOCTYPE svg PUBLIC "-//W3C//DTD SVG 1.1//EN" "http://www.w3.org/Graphics/SVG/1.1/DTD/svg11.dtd">
<svg width="100%" height="100%" viewBox="0 0 115 123" version="1.1" xmlns="http://www.w3.org/2000/svg" xmlns:xlink="http://www.w3.org/1999/xlink" xml:space="preserve" xmlns:serif="http://www.serif.com/" style="fill-rule:evenodd;clip-rule:evenodd;stroke-linejoin:round;stroke-miterlimit:2;">
    <g>
        <path d="M40.59,72.87L51.66,72.87C52.6,72.87 53.39,73.64 53.39,74.6L53.39,83.94C53.39,84.88 52.62,85.67 51.66,85.67L40.59,85.67C39.65,85.67 38.86,84.9 38.86,83.94L38.86,74.6C38.87,73.64 39.64,72.87 40.59,72.87ZM85.39,70.66C84.41,67.78 83.54,64.88 82.8,61.93C85.56,58.9 96.22,59.3 99.3,61.88L96.46,68.63C97.99,66.62 98.5,65.8 99.41,64.68C99.8,64.93 100.15,65.21 100.49,65.52C101.3,66.25 102.02,67.06 102.16,68.18C102.25,68.91 102.05,69.65 101.39,70.41L94.88,78C94.04,77.86 93.22,77.66 92.43,77.38C92.8,76.51 93.25,75.55 93.62,74.68L91.25,77.24C88.78,76.72 86.79,77.03 84.94,78.01L78.33,70.08C77.94,69.61 77.76,69.14 77.76,68.66C77.77,66.75 80.62,65.09 82.12,64.46L85.39,70.66ZM6.53,0L85.71,0C87.5,0 89.14,0.73 90.32,1.92C90.36,1.96 90.4,2 90.44,2.05C91.55,3.22 92.24,4.8 92.24,6.53L92.24,53.53C91.65,53.49 91.06,53.48 90.48,53.48C89.76,53.48 89.04,53.51 88.33,53.57L88.33,6.53C88.33,5.84 88.07,5.22 87.64,4.76L87.56,4.68C87.08,4.2 86.43,3.91 85.71,3.91L6.53,3.91C5.81,3.91 5.15,4.2 4.68,4.67L4.67,4.68C4.2,5.15 3.91,5.8 3.91,6.53L3.91,113.61C3.91,114.29 4.17,114.92 4.6,115.38L4.68,115.46C5.16,115.94 5.81,116.23 6.53,116.23L60.18,116.23C60.39,117.03 60.65,117.83 60.96,118.62C61.17,119.16 61.4,119.66 61.66,120.14L6.53,120.14C4.74,120.14 3.1,119.41 1.92,118.22C1.88,118.18 1.84,118.13 1.8,118.09C0.69,116.92 -0,115.34 -0,113.61L-0,6.53C-0,4.74 0.73,3.11 1.92,1.92L1.93,1.91C3.11,0.73 4.74,0 6.53,0ZM14.61,12.75L77.62,12.75C78.58,12.75 79.44,13.14 80.06,13.76C80.11,13.81 80.16,13.86 80.2,13.92C80.74,14.53 81.07,15.33 81.07,16.21L81.07,35.9C81.07,36.85 80.68,37.71 80.06,38.34L80.05,38.35C79.42,38.98 78.56,39.36 77.61,39.36L14.61,39.36C13.65,39.36 12.79,38.97 12.17,38.35C12.12,38.3 12.07,38.25 12.03,38.19C11.49,37.58 11.16,36.78 11.16,35.9L11.16,16.21C11.16,15.27 11.55,14.41 12.18,13.78L12.19,13.77C12.81,13.14 13.67,12.75 14.61,12.75ZM77.18,16.66L15.07,16.66L15.07,35.45L77.18,35.45L77.18,16.66ZM93.87,84.99L92.58,79.09C98.1,80.12 106.96,91.35 109.82,96.46C111.28,99.07 112.56,101.94 113.61,105.15C115.69,112.92 113.69,120.19 105.26,121.89C99.98,122.95 90.13,123.02 84.57,122.74C78.6,122.43 69.35,122.44 66.94,116.31C63.04,106.41 70.18,94.62 76.69,87.4C77.55,86.45 78.43,85.57 79.35,84.75C81.72,82.67 84.27,80.2 87.32,79.16L84.37,84.64L88.65,78.97L90.9,78.97L93.87,84.99ZM91.12,89.83L91.12,90.87C92.22,90.99 93.17,91.21 93.96,91.55C94.75,91.89 95.44,92.41 96.03,93.1C96.5,93.63 96.86,94.17 97.11,94.73C97.36,95.29 97.49,95.8 97.49,96.27C97.49,96.79 97.3,97.24 96.93,97.61C96.55,97.98 96.09,98.17 95.55,98.17C94.53,98.17 93.88,97.62 93.58,96.53C93.24,95.24 92.42,94.38 91.12,93.96L91.12,100.4C92.4,100.75 93.42,101.07 94.18,101.36C94.94,101.65 95.62,102.06 96.22,102.61C96.86,103.17 97.35,103.86 97.7,104.64C98.04,105.43 98.22,106.29 98.22,107.23C98.22,108.41 97.95,109.51 97.39,110.53C96.84,111.56 96.02,112.39 94.95,113.05C93.87,113.7 92.6,114.09 91.12,114.21L91.12,115.26C91.12,115.87 91.06,116.31 90.94,116.59C90.82,116.87 90.57,117.01 90.16,117.01C89.79,117.01 89.53,116.9 89.38,116.67C89.23,116.44 89.16,116.09 89.16,115.61L89.16,114.23C87.95,114.1 86.9,113.81 85.99,113.38C85.09,112.95 84.33,112.41 83.73,111.76C83.13,111.11 82.68,110.44 82.4,109.75C82.11,109.05 81.97,108.36 81.97,107.7C81.97,107.21 82.16,106.76 82.55,106.36C82.94,105.97 83.42,105.77 83.99,105.77C84.46,105.77 84.85,105.88 85.17,106.09C85.49,106.31 85.71,106.61 85.84,107C86.12,107.85 86.36,108.49 86.56,108.95C86.77,109.4 87.08,109.81 87.5,110.18C87.92,110.55 88.47,110.84 89.16,111.03L89.16,103.83C87.77,103.44 86.62,103.02 85.69,102.55C84.76,102.08 84.01,101.42 83.43,100.55C82.86,99.68 82.56,98.57 82.56,97.21C82.56,95.43 83.12,93.98 84.25,92.85C85.38,91.72 87.01,91.05 89.15,90.87L89.15,89.86C89.15,88.99 89.48,88.56 90.13,88.56C90.79,88.56 91.12,88.98 91.12,89.83ZM89.15,99.82L89.15,93.89C88.28,94.15 87.6,94.49 87.12,94.91C86.63,95.33 86.39,95.98 86.39,96.84C86.39,97.65 86.62,98.27 87.07,98.69C87.53,99.1 88.22,99.48 89.15,99.82ZM91.12,104.41L91.12,111.2C92.16,110.99 92.96,110.58 93.53,109.95C94.09,109.31 94.38,108.58 94.38,107.75C94.38,106.85 94.1,106.16 93.55,105.67C93,105.17 92.19,104.75 91.12,104.41ZM69.43,19.97L71.69,19.97L71.69,32.14L69.43,32.14L69.43,19.97ZM16.07,50.67L27.14,50.67C28.08,50.67 28.87,51.44 28.87,52.4L28.87,61.74C28.87,62.68 28.1,63.47 27.14,63.47L16.07,63.47C15.13,63.47 14.34,62.7 14.34,61.74L14.34,52.4C14.35,51.44 15.13,50.67 16.07,50.67ZM16.07,95.07L27.14,95.07C28.08,95.07 28.87,95.84 28.87,96.8L28.87,106.14C28.87,107.09 28.1,107.87 27.14,107.87L16.07,107.87C15.13,107.87 14.34,107.1 14.34,106.14L14.34,96.8C14.35,95.85 15.13,95.07 16.07,95.07ZM16.07,72.87L27.14,72.87C28.08,72.87 28.87,73.64 28.87,74.6L28.87,83.94C28.87,84.88 28.1,85.67 27.14,85.67L16.07,85.67C15.13,85.67 14.34,84.9 14.34,83.94L14.34,74.6C14.35,73.64 15.13,72.87 16.07,72.87ZM65.12,50.67L76.18,50.67C77.12,50.67 77.9,51.44 77.9,52.4L77.9,57.83C77.31,58.53 76.87,59.35 76.63,60.23C75.88,60.73 75.12,61.3 74.46,61.94C73.97,62.41 73.52,62.92 73.12,63.47L65.13,63.47C64.19,63.47 63.4,62.7 63.4,61.74L63.4,52.4C63.39,51.44 64.17,50.67 65.12,50.67ZM65.12,72.87L72.48,72.87C72.73,73.3 73.03,73.72 73.37,74.14L73.38,74.13L76.91,78.36C76.53,78.69 76.16,79.02 75.8,79.34L75.08,79.97L75.09,79.99L75.05,80.02C74.43,80.57 73.9,81.07 73.45,81.52C72.84,82.12 72.33,82.66 71.9,83.14C71.19,83.93 70.47,84.77 69.75,85.66L65.11,85.66C64.17,85.66 63.38,84.89 63.38,83.93L63.38,74.6C63.39,73.64 64.17,72.87 65.12,72.87ZM40.59,50.67L51.66,50.67C52.6,50.67 53.39,51.44 53.39,52.4L53.39,61.74C53.39,62.68 52.62,63.47 51.66,63.47L40.59,63.47C39.65,63.47 38.86,62.7 38.86,61.74L38.86,52.4C38.87,51.44 39.64,50.67 40.59,50.67ZM40.59,95.07L51.66,95.07C52.6,95.07 53.39,95.84 53.39,96.8L53.39,106.14C53.39,107.09 52.62,107.87 51.66,107.87L40.59,107.87C39.65,107.87 38.86,107.1 38.86,106.14L38.86,96.8C38.87,95.85 39.64,95.07 40.59,95.07Z" style="fill:rgb(6,81,160);"/>
    </g>
</svg>
