<?xml version="1.0" encoding="UTF-8" standalone="no"?>
<!DOCTYPE svg PUBLIC "-//W3C//DTD SVG 1.1//EN" "http://www.w3.org/Graphics/SVG/1.1/DTD/svg11.dtd">
<svg width="100%" height="100%" viewBox="0 0 123 123" version="1.1" xmlns="http://www.w3.org/2000/svg" xmlns:xlink="http://www.w3.org/1999/xlink" xml:space="preserve" xmlns:serif="http://www.serif.com/" style="fill-rule:evenodd;clip-rule:evenodd;stroke-linejoin:round;stroke-miterlimit:2;">
    <g>
        <path d="M81.61,4.73C81.61,2.12 84.19,0 87.38,0C90.57,0 93.15,2.12 93.15,4.73L93.15,25.45C93.15,28.06 90.57,30.18 87.38,30.18C84.19,30.18 81.61,28.06 81.61,25.45L81.61,4.73ZM29.61,4.73C29.61,2.12 32.19,0 35.38,0C38.57,0 41.15,2.12 41.15,4.73L41.15,25.45C41.15,28.06 38.57,30.18 35.38,30.18C32.19,30.18 29.61,28.06 29.61,25.45L29.61,4.73ZM40.99,84.56C39.72,83.34 39.68,81.32 40.9,80.05C42.12,78.78 44.14,78.74 45.41,79.96L55.31,89.53L77.33,65.95C78.53,64.66 80.55,64.59 81.84,65.79C83.13,66.99 83.2,69.01 82,70.3L57.77,96.26L57.73,96.3C56.51,97.57 54.49,97.61 53.22,96.39L40.99,84.56ZM6.4,45.32L116.48,45.32L116.48,21.47C116.48,20.67 116.15,19.94 115.62,19.4C115.09,18.87 114.36,18.54 113.55,18.54L103,18.54C101.23,18.54 99.8,17.11 99.8,15.34C99.8,13.57 101.23,12.14 103,12.14L113.55,12.14C116.12,12.14 118.45,13.19 120.14,14.88C121.83,16.57 122.88,18.9 122.88,21.47L122.88,113.56C122.88,116.13 121.83,118.46 120.14,120.15C118.45,121.84 116.12,122.89 113.55,122.89L9.33,122.89C6.76,122.89 4.43,121.84 2.74,120.15C1.05,118.45 0,116.12 0,113.55L0,21.47C0,18.9 1.05,16.57 2.74,14.88C4.43,13.19 6.76,12.14 9.33,12.14L20.6,12.14C22.37,12.14 23.8,13.57 23.8,15.34C23.8,17.11 22.37,18.54 20.6,18.54L9.33,18.54C8.53,18.54 7.8,18.87 7.26,19.4C6.73,19.93 6.4,20.66 6.4,21.47L6.4,45.32ZM116.48,51.73L6.4,51.73L6.4,113.55C6.4,114.35 6.73,115.08 7.26,115.62C7.79,116.15 8.52,116.48 9.33,116.48L113.55,116.48C114.35,116.48 115.08,116.15 115.62,115.62C116.15,115.09 116.48,114.36 116.48,113.55L116.48,51.73ZM50.43,18.54C48.66,18.54 47.23,17.11 47.23,15.34C47.23,13.57 48.66,12.14 50.43,12.14L71.92,12.14C73.69,12.14 75.12,13.57 75.12,15.34C75.12,17.11 73.69,18.54 71.92,18.54L50.43,18.54Z" style="fill:rgb(6,81,160);fill-rule:nonzero;"/>
    </g>
</svg>
