<?xml version="1.0" encoding="UTF-8" standalone="no"?>
<!DOCTYPE svg PUBLIC "-//W3C//DTD SVG 1.1//EN" "http://www.w3.org/Graphics/SVG/1.1/DTD/svg11.dtd">
<svg width="100%" height="100%" viewBox="0 0 123 105" version="1.1" xmlns="http://www.w3.org/2000/svg" xmlns:xlink="http://www.w3.org/1999/xlink" xml:space="preserve" xmlns:serif="http://www.serif.com/" style="fill-rule:evenodd;clip-rule:evenodd;stroke-linejoin:round;stroke-miterlimit:2;">
    <g>
        <path d="M29.83,91.66L29.83,54.73L46.44,54.73C53.48,55.99 60.52,59.81 67.56,64.24L80.46,64.24C86.3,64.59 89.36,70.51 83.68,74.4C79.16,77.72 73.19,77.53 67.07,76.98C62.85,76.77 62.67,82.44 67.07,82.46C68.6,82.58 70.26,82.22 71.71,82.22C79.34,82.21 85.63,80.75 89.48,74.72L91.41,70.21L110.6,60.7C120.2,57.54 127.03,67.58 119.95,74.57C106.05,84.68 91.8,93 77.22,99.72C66.63,106.16 56.04,105.94 45.46,99.72L29.83,91.66ZM113.21,24.34C113.72,25.2 114,26.12 114,27.07C114,32.13 106.18,36.22 96.54,36.22C86.9,36.22 79.08,32.12 79.08,27.07C79.08,26.12 79.36,25.2 79.87,24.34C82.09,28.06 88.71,30.76 96.53,30.76C104.37,30.76 110.99,28.06 113.21,24.34ZM73.64,37.97C74.16,38.84 74.43,39.75 74.43,40.7C74.43,45.76 66.61,49.85 56.97,49.85C47.33,49.85 39.51,45.75 39.51,40.7C39.51,39.75 39.79,38.83 40.3,37.97C42.52,41.69 49.14,44.39 56.96,44.39C64.8,44.39 71.42,41.69 73.64,37.97ZM59.51,24.59L59.47,22.32C59.99,22.3 60.4,22.14 60.72,21.85C61.05,21.56 61.22,21.21 61.26,20.8C61.3,20.33 61.14,19.91 60.79,19.55C60.44,19.19 59.87,18.97 59.1,18.91C58.38,18.85 57.82,18.96 57.43,19.26C57.04,19.55 56.82,19.96 56.78,20.48C56.73,21.13 56.96,21.73 57.49,22.3L57.07,24.11L51.04,22.42L51.56,16.46L53.67,16.64L53.3,20.9L55.27,21.43C55.06,20.9 54.98,20.38 55.03,19.85C55.11,18.85 55.56,18.03 56.34,17.4C57.13,16.77 58.1,16.5 59.27,16.61C60.24,16.69 61.08,17.05 61.79,17.68C62.76,18.53 63.19,19.64 63.07,21C62.97,22.08 62.61,22.95 61.97,23.58C61.33,24.2 60.51,24.54 59.51,24.59ZM56.97,15.49C64.89,15.49 71.32,18.01 71.32,21.12C71.32,24.23 64.89,26.75 56.97,26.75C49.05,26.75 42.62,24.24 42.62,21.13C42.62,18.02 49.05,15.49 56.97,15.49ZM56.97,13.63C66.61,13.63 74.43,17.73 74.43,22.78C74.43,27.84 66.61,31.93 56.97,31.93C47.33,31.92 39.51,27.83 39.51,22.78C39.52,17.73 47.34,13.63 56.97,13.63ZM73.7,28.88C74.17,29.71 74.43,30.6 74.43,31.51C74.43,36.57 66.61,40.66 56.97,40.66C47.33,40.66 39.51,36.56 39.51,31.51C39.51,30.59 39.76,29.72 40.24,28.89C42.4,32.66 49.07,35.41 56.96,35.41C64.87,35.41 71.54,32.66 73.7,28.88ZM102.85,5.43L102.65,7.7L94.08,6.95C94.79,7.85 95.27,8.88 95.55,10.03L93.49,9.85C93.35,9.24 93.03,8.56 92.56,7.83C92.08,7.08 91.49,6.56 90.78,6.24L90.94,4.4L102.85,5.43ZM96.54,1.87C104.46,1.87 110.89,4.39 110.89,7.5C110.89,10.61 104.46,13.13 96.54,13.13C88.62,13.13 82.2,10.6 82.2,7.49C82.2,4.38 88.62,1.87 96.54,1.87ZM96.54,0C106.18,0 114,4.1 114,9.15C114,14.2 106.18,18.3 96.54,18.3C86.9,18.3 79.08,14.2 79.08,9.15C79.08,4.1 86.91,0 96.54,0ZM113.27,15.25C113.74,16.08 114,16.97 114,17.87C114,22.93 106.18,27.02 96.54,27.02C86.9,27.02 79.08,22.92 79.08,17.87C79.08,16.95 79.33,16.08 79.81,15.25C81.96,19.02 88.63,21.77 96.53,21.77C104.44,21.78 111.12,19.03 113.27,15.25ZM113.1,42.99C113.68,43.91 114,44.88 114,45.9C114,50.96 106.18,55.05 96.54,55.05C86.9,55.05 79.08,50.95 79.08,45.9C79.08,44.88 79.4,43.91 79.98,42.99C82.3,46.61 88.84,49.23 96.53,49.23C104.22,49.23 110.78,46.62 113.1,42.99ZM113.18,33.57C113.71,34.45 114,35.38 114,36.35C114,41.4 106.18,45.5 96.54,45.5C86.9,45.5 79.08,41.4 79.08,36.35C79.08,35.38 79.37,34.45 79.9,33.57C82.14,37.27 88.74,39.94 96.54,39.94C104.34,39.94 110.93,37.27 113.18,33.57ZM0,51.18L24.83,51.18L24.83,95.36L0,95.36L0,51.18Z" style="fill:rgb(6,81,160);"/>
    </g>
</svg>
