<?xml version="1.0" encoding="UTF-8" standalone="no"?>
<!DOCTYPE svg PUBLIC "-//W3C//DTD SVG 1.1//EN" "http://www.w3.org/Graphics/SVG/1.1/DTD/svg11.dtd">
<svg width="100%" height="100%" viewBox="0 0 123 115" version="1.1" xmlns="http://www.w3.org/2000/svg" xmlns:xlink="http://www.w3.org/1999/xlink" xml:space="preserve" xmlns:serif="http://www.serif.com/" style="fill-rule:evenodd;clip-rule:evenodd;stroke-linejoin:round;stroke-miterlimit:2;">
    <g>
        <path d="M49.94,0C62.69,0 73.02,10.33 73.02,23.08C73.02,24.83 72.82,26.53 72.46,28.17C73.07,28.24 73.68,28.31 74.28,28.39C75.24,28.52 76.2,28.65 77.14,28.8L77.39,28.86C77.75,28.98 78.09,29.05 78.4,29.07C78.74,29.09 79.06,29.07 79.36,29.01C80.22,28.84 81.5,28.04 82.88,27.18C84.42,26.22 86.07,25.2 87.82,24.61C89,24.21 93.12,23.94 97.04,23.86C101.5,23.76 105.93,24.14 106.38,25.04C106.73,25.73 106.95,26.62 106.87,27.61C106.81,28.4 106.56,29.25 106.05,30.11C104.88,32.08 102.77,33.54 100.77,34.91C98.74,36.3 96.88,37.58 97.19,38.54C97.21,38.62 97.41,38.79 97.71,39.03C98.15,39.38 98.79,39.79 99.46,40.2C102.15,41.84 104.25,43.58 106.03,45.63C107.79,47.66 109.25,49.98 110.68,52.83C111.1,53.66 111.5,54.51 111.88,55.39C112.29,56.33 112.68,57.28 113.05,58.24L113.13,58.55C113.35,59.86 113.64,60.86 114.03,61.47C114.22,61.77 114.4,61.92 114.57,61.92L114.62,61.91L116.72,61.91C117.06,61.91 117.33,61.89 117.57,61.88C119.57,61.74 120.69,61.67 121.86,64.67C122.67,66.75 122.94,69.65 122.82,72.54C122.69,75.65 122.12,78.82 121.29,80.99C120.99,82.42 120.34,83.56 119.33,84.4C118.32,85.23 117,85.73 115.35,85.86L115.22,85.87L112.88,85.87C111.86,85.87 110.97,85.83 110.31,85.81C109.68,85.79 109.55,85.7 109.47,85.74C109.35,85.8 109.5,85.81 109.33,86.03C108.91,86.61 108.24,87.53 106.83,88.99C105.82,90.03 104.65,91.18 103.53,92.24C102.49,93.22 101.45,94.15 100.59,94.87L100.06,95.31C99.09,96.11 98.62,96.5 98.6,96.62C98.56,96.85 98.85,97.55 99.42,98.92C99.66,99.5 99.81,99.85 99.86,99.98C100.43,101.38 101,102.74 101.52,103.93C102.39,105.94 103.35,108.06 103.66,108.76L103.69,108.83C104.4,110.63 104.24,112 103.25,112.98C102.41,113.81 101.08,114.13 99.28,113.99L90.85,113.99C89.67,114.07 88.55,113.82 87.5,113.22C86.5,112.65 85.59,111.79 84.77,110.64L84.69,110.51C84.38,109.97 84.06,109.26 83.72,108.5C82.89,106.66 81.87,104.37 81.04,104.7C75.32,106.93 69.73,108.26 63.68,108.46C57.7,108.66 51.3,107.76 43.91,105.52C41.79,105.22 41.36,106.12 40.68,107.54C40.49,107.94 40.29,108.37 40.01,108.9C39.84,109.25 39.78,109.39 39.71,109.52C38.73,111.61 37.79,113.63 34.86,114.22L34.54,114.25L23.65,114.17L23.54,114.17C22.87,114.12 22.28,113.97 21.76,113.69C21.16,113.38 20.7,112.93 20.37,112.33C19.4,110.56 20.05,109.22 20.71,107.87L20.7,107.87C20.81,107.64 20.93,107.4 20.96,107.34L20.97,107.33L24.8,98.95L24.87,98.81C25.27,98.12 25.42,97.55 25.33,97.11C25.24,96.68 24.92,96.26 24.39,95.85C23.63,95.31 22.89,94.75 22.18,94.18C21.44,93.59 20.74,92.98 20.06,92.36C17.81,90.3 15.73,87.88 13.95,85.22C12.24,82.67 10.8,79.89 9.76,76.99C8.95,74.72 8.38,72.39 8.1,70.05C8.04,69.51 7.99,68.96 7.96,68.42C4.43,66.72 1.94,63.69 0.74,59.69C-0.47,55.62 -0.32,50.56 1.48,44.92L4.54,45.9C2.94,50.89 2.79,55.3 3.82,58.77C4.59,61.33 6.02,63.38 8.01,64.75C8.05,64.27 8.11,63.78 8.18,63.3C8.94,58.06 10.97,53.18 13.87,48.85C16.98,44.22 21.08,40.23 25.68,37.14C26.46,36.62 27.27,36.11 28.1,35.62C28.71,35.26 29.31,34.93 29.89,34.62C27.93,31.23 26.82,27.3 26.82,23.1C26.86,10.33 37.19,0 49.94,0ZM94.57,56.18C96.01,56.18 97.31,56.76 98.25,57.7C99.19,58.64 99.77,59.94 99.77,61.38C99.77,62.82 99.19,64.12 98.25,65.06C97.31,66 96.01,66.58 94.57,66.58C93.14,66.58 91.84,66 90.9,65.06C89.96,64.12 89.38,62.82 89.38,61.39C89.38,59.95 89.96,58.65 90.9,57.71C91.83,56.77 93.13,56.18 94.57,56.18ZM95.97,59.99C95.61,59.63 95.12,59.41 94.57,59.41C94.02,59.41 93.53,59.63 93.17,59.99C92.81,60.35 92.59,60.84 92.59,61.39C92.59,61.94 92.81,62.44 93.16,62.79L93.17,62.8C93.52,63.15 94.02,63.37 94.57,63.37C95.12,63.37 95.61,63.15 95.97,62.79C96.33,62.43 96.55,61.94 96.55,61.39C96.55,60.84 96.33,60.34 95.97,59.99ZM33.06,44.03L40.24,44.03C36.9,42.48 33.99,40.15 31.75,37.28C31.05,37.65 30.39,38.01 29.77,38.37C29.01,38.81 28.26,39.29 27.52,39.79C23.25,42.65 19.45,46.34 16.59,50.62C13.95,54.56 12.1,59 11.41,63.74C11.13,65.71 11.12,67.7 11.35,69.68C11.6,71.79 12.11,73.88 12.83,75.9C13.78,78.54 15.09,81.08 16.66,83.42C18.29,85.85 20.21,88.08 22.28,89.98C22.92,90.56 23.57,91.12 24.24,91.66C24.93,92.21 25.63,92.75 26.36,93.26L26.42,93.3C27.57,94.19 28.3,95.24 28.54,96.49C28.78,97.71 28.53,99.01 27.72,100.41L23.95,108.65C23.8,108.98 23.73,109.13 23.65,109.28L23.64,109.28C23.35,109.88 23.06,110.47 23.24,110.79C23.25,110.81 23.28,110.83 23.31,110.85C23.42,110.91 23.59,110.95 23.82,110.96L34.42,111.03C35.66,110.7 36.25,109.45 36.85,108.15C36.99,107.86 37.12,107.57 37.16,107.49L37.19,107.43C37.4,107.04 37.62,106.58 37.82,106.15C39.14,103.37 39.96,101.63 44.5,102.33L44.73,102.39C51.83,104.55 57.94,105.42 63.62,105.23C69.27,105.04 74.53,103.79 79.93,101.68C83.6,100.25 85.32,104.08 86.7,107.17C86.98,107.8 87.24,108.38 87.5,108.84C88.03,109.57 88.57,110.1 89.12,110.41C89.62,110.69 90.15,110.81 90.72,110.76L90.85,110.75L99.38,110.75L99.51,110.76C100.38,110.83 100.9,110.81 101.03,110.68C101.03,110.68 100.94,110.48 100.78,110.06C100.52,109.49 99.69,107.63 98.63,105.18C98,103.73 97.38,102.28 96.93,101.17C96.56,100.27 96.53,100.18 96.5,100.12C95.7,98.18 95.29,97.18 95.48,96.06C95.7,94.77 96.48,94.13 98.08,92.81L98.6,92.38C99.36,91.75 100.35,90.86 101.39,89.87C102.49,88.84 103.61,87.72 104.59,86.72C105.82,85.45 106.42,84.63 106.79,84.11C107.24,83.48 107.49,83.14 108.1,82.84C108.77,82.5 109.31,82.53 110.5,82.57C111.02,82.59 111.73,82.62 112.95,82.62L115.24,82.62C116.17,82.54 116.87,82.29 117.34,81.9C117.79,81.53 118.08,80.97 118.22,80.24L118.31,79.95C119.04,78.1 119.56,75.25 119.67,72.4C119.77,69.9 119.56,67.46 118.92,65.81C118.61,65.02 118.33,65.03 117.84,65.07C117.51,65.09 117.14,65.12 116.77,65.12L114.67,65.12L114.67,65.11C113.27,65.14 112.18,64.46 111.36,63.16C110.76,62.2 110.32,60.87 110.04,59.22C109.68,58.28 109.33,57.42 108.98,56.64C108.6,55.77 108.22,54.96 107.85,54.23C106.55,51.65 105.24,49.54 103.64,47.71C102.07,45.9 100.21,44.37 97.83,42.91C97.09,42.46 96.37,42 95.75,41.5C94.99,40.89 94.41,40.23 94.17,39.48C93.14,36.25 95.93,34.32 98.98,32.22C100.69,31.04 102.5,29.8 103.31,28.43C103.55,28.03 103.66,27.66 103.69,27.33C103.72,26.97 103.65,26.67 103.54,26.45C103.4,26.17 100.55,26.96 97.13,27.04C93.48,27.12 89.74,27.34 88.87,27.63C87.5,28.09 86.01,29.02 84.61,29.89C82.98,30.91 81.47,31.85 80.02,32.14C79.43,32.26 78.82,32.3 78.22,32.26C77.66,32.22 77.09,32.11 76.51,31.93C75.65,31.79 74.77,31.67 73.89,31.55C73.12,31.45 72.33,31.36 71.54,31.27C69.39,36.9 65.11,41.48 59.67,44L69.15,44L69.15,48.3L33.06,48.3L33.06,44.03ZM59.86,15.52L53.45,16.53C53.13,15.72 52.84,15.16 52.58,14.85C52.32,14.54 51.9,14.22 51.3,13.9L51.3,18.87C54.78,19.8 57.11,20.78 58.28,21.81C59.82,23.2 60.6,24.96 60.6,27.1C60.6,28.35 60.32,29.5 59.77,30.54C59.21,31.59 58.5,32.45 57.64,33.16C56.78,33.86 55.85,34.36 54.88,34.68C53.91,35 52.71,35.18 51.3,35.24L51.3,38.48L48.8,38.48L48.8,35.24C47.11,35.09 45.75,34.82 44.7,34.43C43.65,34.04 42.74,33.49 41.98,32.79C41.22,32.1 40.63,31.35 40.22,30.54C39.81,29.74 39.5,28.76 39.29,27.62L46.23,26.82C46.44,27.95 46.72,28.76 47.07,29.26C47.42,29.76 48,30.21 48.8,30.59L48.8,24.51C46.47,23.87 44.83,23.31 43.86,22.84C42.89,22.37 42.05,21.61 41.34,20.57C40.63,19.53 40.27,18.27 40.27,16.78C40.27,14.74 40.99,13.03 42.41,11.66C43.84,10.29 45.97,9.52 48.79,9.38L48.79,7.69L51.29,7.69L51.29,9.38C53.86,9.54 55.83,10.14 57.19,11.2C58.56,12.25 59.45,13.69 59.86,15.52ZM48.8,13.82C48.06,14.06 47.55,14.36 47.26,14.71C46.97,15.06 46.83,15.48 46.83,15.97C46.83,16.47 46.98,16.91 47.27,17.28C47.56,17.66 48.07,17.97 48.8,18.22L48.8,13.82ZM51.3,30.76C52.27,30.54 52.99,30.18 53.44,29.68C53.89,29.18 54.12,28.62 54.12,28C54.12,27.46 53.93,26.96 53.54,26.5C53.16,26.05 52.41,25.62 51.3,25.24L51.3,30.76Z" style="fill:rgb(0,67,141);"/>
    </g>
</svg>
