<?xml version="1.0" encoding="UTF-8" standalone="no"?>
<!DOCTYPE svg PUBLIC "-//W3C//DTD SVG 1.1//EN" "http://www.w3.org/Graphics/SVG/1.1/DTD/svg11.dtd">
<svg width="100%" height="100%" viewBox="0 0 115 123" version="1.1" xmlns="http://www.w3.org/2000/svg" xmlns:xlink="http://www.w3.org/1999/xlink" xml:space="preserve" xmlns:serif="http://www.serif.com/" style="fill-rule:evenodd;clip-rule:evenodd;stroke-linejoin:round;stroke-miterlimit:2;">
    <g>
        <path d="M105.4,76.3L109.2,80.1C110.2,81.1 110.2,82.7 109.2,83.7L106.1,86.8C106.9,88.4 107.6,90.1 108,91.9L112,91.9C113.4,91.9 114.6,93.1 114.6,94.5L114.6,99.9C114.6,101.3 113.4,102.5 112,102.5L107.7,102.5C107.2,104.2 106.4,105.9 105.5,107.4L108.3,110.2C109.3,111.2 109.3,112.8 108.3,113.8L104.5,117.6C103.5,118.6 101.9,118.6 100.9,117.6L97.8,114.5C96.2,115.3 94.5,116 92.7,116.4L92.7,120.4C92.7,121.8 91.5,123 90.1,123L84.7,123C83.3,123 82.1,121.8 82.1,120.4L82.1,116C80.4,115.5 78.7,114.7 77.2,113.8L74.4,116.6C73.4,117.6 71.8,117.6 70.8,116.6L67,112.8C66,111.8 66,110.2 67,109.2L70.1,106.1C69.3,104.5 68.6,102.8 68.2,101L64.2,101C62.8,101 61.6,99.8 61.6,98.4L61.6,93C61.6,91.6 62.8,90.4 64.2,90.4L68.5,90.4C69,88.7 69.8,87 70.7,85.5L68,82.8C67,81.8 67,80.2 68,79.2L71.8,75.4C72.8,74.4 74.4,74.4 75.4,75.4L78.5,78.5C80.1,77.7 81.8,77 83.6,76.6L83.6,72.6C83.6,71.2 84.8,70 86.2,70L91.6,70C93,70 94.2,71.2 94.2,72.6L94.2,76.9C95.9,77.4 97.6,78.2 99.1,79.1L101.9,76.3C102.7,75.3 104.4,75.3 105.4,76.3ZM41.4,82.2C40,82.2 38.9,80.8 38.9,79.2C38.9,77.5 40,76.2 41.4,76.2L53.8,76.2C55.2,76.2 56.3,77.6 56.3,79.2C56.3,80.9 55.2,82.2 53.8,82.2L41.4,82.2ZM45.1,112.3C46.8,112.3 48.1,113.7 48.1,115.3C48.1,117 46.7,118.3 45.1,118.3L7.1,118.3C5.2,118.3 3.4,117.5 2.1,116.2C0.8,114.9 0,113.2 0,111.2L0,7.1C0,5.1 0.8,3.4 2.1,2.1C3.4,0.8 5.1,-0 7.1,-0L93.8,-0C95.7,-0 97.5,0.8 98.8,2.1C100.1,3.4 100.9,5.1 100.9,7.1L100.9,55.4C100.9,57.1 99.5,58.4 97.9,58.4C96.2,58.4 94.9,57 94.9,55.4L94.9,7.1C94.9,6.8 94.8,6.6 94.6,6.4C94.4,6.2 94.2,6.1 93.9,6.1L7.1,6.1C6.8,6.1 6.6,6.2 6.4,6.4C6.2,6.5 6.1,6.8 6.1,7.1L6.1,111.4C6.1,111.7 6.2,111.9 6.4,112.1C6.6,112.3 6.8,112.4 7.1,112.4L45.1,112.4L45.1,112.3ZM18.8,74.1L29.5,74.1C30.1,74.1 30.5,74.5 30.5,75.1L30.5,84.3C30.5,84.9 30.1,85.3 29.5,85.3L18.8,85.3C18.2,85.3 17.8,84.9 17.8,84.3L17.8,75.1C17.8,74.5 18.2,74.1 18.8,74.1ZM18.8,21.2L29.5,21.2C30.1,21.2 30.5,21.6 30.5,22.2L30.5,31.4C30.5,32 30.1,32.4 29.5,32.4L18.8,32.4C18.2,32.4 17.8,32 17.8,31.4L17.8,22.2C17.8,21.6 18.2,21.2 18.8,21.2ZM41.4,29.3C40,29.3 38.9,27.9 38.9,26.3C38.9,24.6 40,23.3 41.4,23.3L76.1,23.3C77.5,23.3 78.6,24.7 78.6,26.3C78.6,28 77.5,29.3 76.1,29.3L41.4,29.3ZM21.9,57.4C21.2,57.9 20.3,57.8 19.6,57.1C19.5,57 19.5,57 19.4,56.9L16.2,53.6C15.5,52.9 15.7,51.8 16.5,51C17.4,50.3 18.6,50.2 19.3,50.9L21,52.7L26.6,48.2C27.3,47.6 28.5,47.9 29.1,48.8C29.8,49.7 29.7,51 28.9,51.6L21.9,57.4ZM39.7,54.8C38.3,54.8 37.2,53.4 37.2,51.8C37.2,50.1 38.3,48.8 39.7,48.8L74.4,48.8C75.8,48.8 76.9,50.2 76.9,51.8C76.9,53.5 75.8,54.8 74.4,54.8L39.7,54.8ZM88.1,85.9C93.9,85.9 98.7,90.6 98.7,96.5C98.7,102.3 94,107.1 88.1,107.1C82.3,107.1 77.5,102.4 77.5,96.5C77.5,90.6 82.3,85.9 88.1,85.9Z" style="fill:rgb(6,81,160);"/>
    </g>
</svg>
