<?xml version="1.0" encoding="UTF-8" standalone="no"?>
<!DOCTYPE svg PUBLIC "-//W3C//DTD SVG 1.1//EN" "http://www.w3.org/Graphics/SVG/1.1/DTD/svg11.dtd">
<svg width="100%" height="100%" viewBox="0 0 123 123" version="1.1" xmlns="http://www.w3.org/2000/svg" xmlns:xlink="http://www.w3.org/1999/xlink" xml:space="preserve" xmlns:serif="http://www.serif.com/" style="fill-rule:evenodd;clip-rule:evenodd;stroke-linejoin:round;stroke-miterlimit:2;">
    <g>
        <path d="M91.74,102.54C84.27,107.91 76.48,111.42 68.34,112.77C63.65,113.54 58.91,113.59 54.11,112.86L54.11,120.37C54.12,122.83 52.04,123.69 49.88,122.02C49.06,121.39 48.13,120.31 47.38,119.55L31.46,103.42C29.65,101.31 30.17,99.13 32.76,96.9L48.88,80.66C50.96,78.31 54.01,78.61 54.21,81.96L54.31,89.88C57.88,90.89 61.34,91.08 64.69,90.52C69.28,89.76 73.9,87.61 78.56,84.26L91.74,102.54ZM113.02,68.77L120.37,68.77C122.83,68.76 123.69,70.84 122.02,73C121.39,73.82 120.31,74.75 119.55,75.5L103.42,91.42C101.31,93.23 99.13,92.71 96.9,90.12L80.66,73.99C78.31,71.91 78.61,68.86 81.96,68.66L90.06,68.55C91.03,65.04 91.2,61.64 90.65,58.34C89.89,53.75 87.74,49.12 84.39,44.47L102.66,31.32C108.03,38.79 111.54,46.58 112.89,54.72C113.67,59.36 113.72,64.04 113.02,68.77ZM68.77,10.02L68.77,2.51C68.76,0.05 70.84,-0.8 73,0.86C73.82,1.49 74.75,2.57 75.5,3.33L91.42,19.46C93.23,21.57 92.71,23.75 90.12,25.98L73.99,42.22C71.91,44.57 68.86,44.27 68.66,40.92L68.56,32.96C65.1,32.03 61.74,31.86 58.49,32.4C53.9,33.16 49.27,35.31 44.62,38.66L31.45,20.39C38.92,15.02 46.71,11.51 54.85,10.16C59.45,9.4 64.08,9.33 68.77,10.02ZM20.52,91.6C15.15,84.13 11.64,76.34 10.29,68.2C9.52,63.55 9.47,58.86 10.18,54.11L2.51,54.11C0.05,54.12 -0.81,52.04 0.86,49.88C1.49,49.06 2.57,48.13 3.33,47.38L19.46,31.46C21.57,29.65 23.75,30.17 25.98,32.76L42.22,48.88C44.57,50.96 44.27,54.01 40.92,54.21L33.14,54.31C32.16,57.83 31.99,61.25 32.53,64.56C33.29,69.15 35.44,73.78 38.79,78.43L20.52,91.6Z" style="fill:rgb(6,81,160);fill-rule:nonzero;"/>
    </g>
</svg>
