<?xml version="1.0" encoding="UTF-8" standalone="no"?>
<!DOCTYPE svg PUBLIC "-//W3C//DTD SVG 1.1//EN" "http://www.w3.org/Graphics/SVG/1.1/DTD/svg11.dtd">
<svg width="100%" height="100%" viewBox="0 0 123 82" version="1.1" xmlns="http://www.w3.org/2000/svg" xmlns:xlink="http://www.w3.org/1999/xlink" xml:space="preserve" xmlns:serif="http://www.serif.com/" style="fill-rule:evenodd;clip-rule:evenodd;stroke-linejoin:round;stroke-miterlimit:2;">
    <g>
        <path d="M94.14,36.75L105.84,36.75L105.84,17.58C105.84,15.97 105.18,14.51 104.12,13.45C103.06,12.39 101.6,11.73 99.99,11.73C98.38,11.73 96.92,12.39 95.86,13.45C94.8,14.51 94.14,15.97 94.14,17.58L94.14,36.75ZM10.6,0C13.53,0 16.18,1.19 18.1,3.1C20.02,5.02 21.21,7.67 21.21,10.6C21.21,13.53 20.02,16.18 18.1,18.1C16.18,20.02 13.53,21.21 10.6,21.21C7.67,21.21 5.02,20.02 3.1,18.1C1.19,16.18 0,13.53 0,10.6C0,7.67 1.19,5.02 3.11,3.1C5.02,1.19 7.67,0 10.6,0ZM14.53,6.67C13.53,5.67 12.14,5.04 10.6,5.04C9.07,5.04 7.68,5.66 6.67,6.67C5.67,7.67 5.04,9.06 5.04,10.6C5.04,12.13 5.66,13.52 6.67,14.53C7.67,15.53 9.06,16.16 10.6,16.16C12.13,16.16 13.52,15.54 14.53,14.53C15.53,13.53 16.16,12.14 16.16,10.6C16.16,9.07 15.53,7.68 14.53,6.67ZM48.03,69.92C52.08,69.92 55.61,68.71 58.61,66.27C61.64,63.83 63.31,60.78 63.62,57.11L74.33,57.11C74.12,60.91 72.83,64.52 70.43,67.94C68.01,71.36 64.8,74.1 60.79,76.14C56.78,78.16 52.53,79.19 48.04,79.19C39.05,79.19 31.87,76.19 26.55,70.18C21.25,64.17 18.58,55.93 18.58,45.49L18.58,43.59C18.58,37.16 19.77,31.42 22.13,26.42C24.49,21.41 27.89,17.51 32.31,14.73C36.73,11.95 41.95,10.58 47.98,10.58C55.41,10.58 61.57,12.79 66.49,17.24C71.39,21.69 74,27.47 74.34,34.54L63.62,34.54C63.31,30.26 61.68,26.74 58.76,23.98C55.86,21.23 52.25,19.85 47.97,19.85C42.23,19.85 37.79,21.92 34.61,26.05C31.46,30.2 29.87,36.17 29.87,44.02L29.87,46.15C29.87,53.77 31.44,59.65 34.59,63.76C37.72,67.85 42.21,69.92 48.03,69.92ZM113.06,16.93C112.23,16.93 111.56,16.26 111.56,15.43C111.56,14.6 112.23,13.93 113.06,13.93L121.38,13.93C122.21,13.93 122.88,14.6 122.88,15.43C122.88,16.26 122.21,16.93 121.38,16.93L113.06,16.93ZM113.06,25.38C112.23,25.38 111.56,24.71 111.56,23.88C111.56,23.05 112.23,22.38 113.06,22.38L121.38,22.38C122.21,22.38 122.88,23.05 122.88,23.88C122.88,24.71 122.21,25.38 121.38,25.38L113.06,25.38ZM113.06,33.84C112.23,33.84 111.56,33.17 111.56,32.34C111.56,31.51 112.23,30.84 113.06,30.84L121.38,30.84C122.21,30.84 122.88,31.51 122.88,32.34C122.88,33.17 122.21,33.84 121.38,33.84L113.06,33.84ZM113.06,42.29C112.23,42.29 111.56,41.62 111.56,40.79C111.56,39.96 112.23,39.29 113.06,39.29L121.38,39.29C122.21,39.29 122.88,39.96 122.88,40.79C122.88,41.62 122.21,42.29 121.38,42.29L113.06,42.29ZM113.06,50.74C112.23,50.74 111.56,50.07 111.56,49.24C111.56,48.41 112.23,47.74 113.06,47.74L121.38,47.74C122.21,47.74 122.88,48.41 122.88,49.24C122.88,50.07 122.21,50.74 121.38,50.74L113.06,50.74ZM108.84,52.53C112.88,55.36 115.52,60.05 115.52,65.36C115.52,74.01 108.51,81.01 99.87,81.01C91.22,81.01 84.22,74 84.22,65.36C84.22,59.94 86.98,55.16 91.17,52.35L91.17,17.58C91.17,15.15 92.16,12.94 93.77,11.34C95.37,9.74 97.58,8.74 100.01,8.74C102.44,8.74 104.65,9.73 106.26,11.34C107.86,12.94 108.86,15.15 108.86,17.58L108.86,52.53L108.84,52.53Z" style="fill:rgb(6,81,160);"/>
    </g>
</svg>
