<?xml version="1.0" encoding="UTF-8" standalone="no"?>
<!DOCTYPE svg PUBLIC "-//W3C//DTD SVG 1.1//EN" "http://www.w3.org/Graphics/SVG/1.1/DTD/svg11.dtd">
<svg width="100%" height="100%" viewBox="0 0 232 99" version="1.1" xmlns="http://www.w3.org/2000/svg" xmlns:xlink="http://www.w3.org/1999/xlink" xml:space="preserve" xmlns:serif="http://www.serif.com/" style="fill-rule:evenodd;clip-rule:evenodd;stroke-linejoin:round;stroke-miterlimit:2;">
    <g>
        <path d="M10.561,72.203L4.398,72.203L4.398,74.224L10.266,74.224C11.186,74.224 11.808,74.381 12.131,74.696C12.455,75.01 12.616,75.595 12.616,76.45L12.616,77.742C12.616,78.596 12.454,79.181 12.131,79.496C11.808,79.81 11.186,79.968 10.266,79.968L4.452,79.968C3.532,79.968 2.91,79.811 2.587,79.496C2.263,79.182 2.102,78.597 2.102,77.742L2.102,77.483L4.034,77.083L4.034,78.196L10.685,78.196L10.685,76.05L4.817,76.05C3.902,76.05 3.285,75.893 2.965,75.578C2.644,75.264 2.484,74.679 2.484,73.824L2.484,72.782C2.484,71.928 2.644,71.343 2.965,71.028C3.285,70.714 3.903,70.555 4.817,70.555L10.159,70.555C11.043,70.555 11.654,70.706 11.989,71.009C12.324,71.312 12.492,71.85 12.492,72.621L12.492,72.816L10.56,73.27L10.56,72.203L10.561,72.203Z" style="fill:rgb(89,90,92);fill-rule:nonzero;"/>
        <path d="M18.8,79.968L18.8,75.756L13.912,70.556L16.832,70.556L20.064,74.171L23.305,70.556L25.878,70.556L21.007,75.703L21.007,79.968L18.8,79.968Z" style="fill:rgb(89,90,92);fill-rule:nonzero;"/>
        <path d="M35.598,72.203L29.436,72.203L29.436,74.224L35.304,74.224C36.224,74.224 36.846,74.381 37.169,74.696C37.493,75.01 37.654,75.595 37.654,76.45L37.654,77.742C37.654,78.596 37.492,79.181 37.169,79.496C36.846,79.81 36.224,79.968 35.304,79.968L29.49,79.968C28.57,79.968 27.948,79.811 27.625,79.496C27.301,79.182 27.14,78.597 27.14,77.742L27.14,77.483L29.072,77.083L29.072,78.196L35.723,78.196L35.723,76.05L29.855,76.05C28.94,76.05 28.323,75.893 28.003,75.578C27.682,75.264 27.522,74.679 27.522,73.824L27.522,72.782C27.522,71.928 27.682,71.343 28.003,71.028C28.323,70.714 28.941,70.555 29.855,70.555L35.197,70.555C36.081,70.555 36.692,70.706 37.027,71.009C37.362,71.312 37.53,71.85 37.53,72.621L37.53,72.816L35.598,73.27L35.598,72.203Z" style="fill:rgb(89,90,92);fill-rule:nonzero;"/>
        <path d="M45.592,72.239L45.592,79.968L43.402,79.968L43.402,72.239L39.083,72.239L39.083,70.555L49.929,70.555L49.929,72.239L45.592,72.239Z" style="fill:rgb(89,90,92);fill-rule:nonzero;"/>
        <path d="M51.624,79.969L51.624,70.556L61.258,70.556L61.258,72.16L53.814,72.16L53.814,74.261L58.159,74.261L58.159,75.865L53.814,75.865L53.814,78.198L61.347,78.198L61.347,79.969L51.624,79.969Z" style="fill:rgb(89,90,92);fill-rule:nonzero;"/>
        <path d="M64.386,79.968L64.386,70.556L66.158,70.556L70.593,76.246L74.929,70.556L76.683,70.556L76.683,79.968L74.653,79.968L74.653,74.154C74.653,74.042 74.66,73.899 74.675,73.726C74.69,73.554 74.709,73.362 74.733,73.148C74.614,73.391 74.51,73.591 74.421,73.749C74.332,73.907 74.252,74.035 74.181,74.137L70.646,78.838L70.209,78.838L66.666,74.119C66.535,73.94 66.424,73.773 66.332,73.615C66.24,73.458 66.164,73.305 66.105,73.157C66.123,73.352 66.136,73.531 66.145,73.691C66.154,73.851 66.158,74.005 66.158,74.154L66.158,79.968L64.386,79.968Z" style="fill:rgb(89,90,92);fill-rule:nonzero;"/>
        <path d="M86.182,72.782C86.182,71.928 86.343,71.343 86.663,71.028C86.984,70.714 87.601,70.555 88.515,70.555L95.443,70.555C96.357,70.555 96.974,70.713 97.295,71.028C97.615,71.342 97.775,71.927 97.775,72.782L97.775,77.742C97.775,78.602 97.615,79.188 97.295,79.5C96.974,79.812 96.357,79.968 95.443,79.968L88.515,79.968C87.601,79.968 86.984,79.812 86.663,79.5C86.343,79.188 86.182,78.603 86.182,77.742L86.182,72.782ZM88.373,78.196L95.595,78.196L95.595,72.239L88.373,72.239L88.373,78.196Z" style="fill:rgb(89,90,92);fill-rule:nonzero;"/>
        <path d="M101.403,79.969L101.403,70.556L107.458,70.556C109.186,70.556 110.514,70.96 111.443,71.767C112.372,72.575 112.836,73.72 112.836,75.205C112.836,76.084 112.655,76.875 112.293,77.578C111.931,78.281 111.42,78.835 110.761,79.238C110.352,79.494 109.843,79.679 109.234,79.795C108.626,79.911 107.846,79.969 106.897,79.969L101.403,79.969ZM103.594,78.196L106.426,78.196C107.933,78.196 109.002,77.961 109.632,77.492C110.261,77.023 110.576,76.249 110.576,75.168C110.576,74.207 110.314,73.479 109.792,72.982C109.27,72.487 108.498,72.239 107.477,72.239L103.595,72.239L103.595,78.196L103.594,78.196Z" style="fill:rgb(89,90,92);fill-rule:nonzero;"/>
        <path d="M114.576,79.968L114.576,78.944L121.157,72.24L115.236,72.24L115.236,70.556L124.683,70.556L124.683,71.492L118.005,78.197L124.683,78.197L124.683,79.968L114.576,79.968Z" style="fill:rgb(89,90,92);fill-rule:nonzero;"/>
        <path d="M129.948,79.968L129.948,75.756L125.06,70.556L127.981,70.556L131.213,74.171L134.453,70.556L137.027,70.556L132.156,75.703L132.156,79.968L129.948,79.968Z" style="fill:rgb(89,90,92);fill-rule:nonzero;"/>
        <path d="M146.747,72.203L140.584,72.203L140.584,74.224L146.452,74.224C147.372,74.224 147.994,74.381 148.317,74.696C148.641,75.01 148.802,75.595 148.802,76.45L148.802,77.742C148.802,78.596 148.641,79.181 148.317,79.496C147.994,79.81 147.372,79.968 146.452,79.968L140.638,79.968C139.718,79.968 139.096,79.811 138.773,79.496C138.449,79.182 138.288,78.597 138.288,77.742L138.288,77.483L140.221,77.083L140.221,78.196L146.871,78.196L146.871,76.05L141.004,76.05C140.09,76.05 139.473,75.893 139.152,75.578C138.831,75.264 138.671,74.679 138.671,73.824L138.671,72.782C138.671,71.928 138.831,71.343 139.152,71.028C139.472,70.714 140.09,70.555 141.004,70.555L146.346,70.555C147.231,70.555 147.841,70.706 148.176,71.009C148.512,71.312 148.68,71.85 148.68,72.621L148.68,72.816L146.747,73.27L146.747,72.203Z" style="fill:rgb(89,90,92);fill-rule:nonzero;"/>
        <path d="M152.359,79.969L152.359,70.556L154.567,70.556L154.567,74.483L159.785,70.556L162.955,70.556L156.722,74.991L163.722,79.969L160.204,79.969L154.567,75.828L154.567,79.969L152.359,79.969Z" style="fill:rgb(89,90,92);fill-rule:nonzero;"/>
        <path d="M167.393,70.555L167.393,78.196L173.634,78.196L173.634,70.555L175.816,70.555L175.816,77.742C175.816,78.602 175.655,79.188 175.335,79.5C175.015,79.812 174.397,79.968 173.483,79.968L167.535,79.968C166.627,79.968 166.011,79.812 165.688,79.5C165.364,79.188 165.202,78.603 165.202,77.742L165.202,70.555L167.393,70.555Z" style="fill:rgb(89,90,92);fill-rule:nonzero;"/>
        <path d="M187.657,79.968L184.033,70.556L186.295,70.556L188.681,76.869L191.183,70.556L192.715,70.556L195.261,76.869L197.541,70.556L199.499,70.556L195.866,79.968L194.388,79.968L191.797,73.459L189.17,79.968L187.657,79.968Z" style="fill:rgb(89,90,92);fill-rule:nonzero;"/>
        <path d="M201.426,72.782C201.426,71.928 201.586,71.343 201.906,71.028C202.227,70.714 202.844,70.555 203.759,70.555L210.687,70.555C211.601,70.555 212.218,70.713 212.54,71.028C212.86,71.342 213.02,71.927 213.02,72.782L213.02,77.742C213.02,78.602 212.86,79.188 212.54,79.5C212.219,79.812 211.602,79.968 210.687,79.968L203.759,79.968C202.845,79.968 202.228,79.812 201.906,79.5C201.586,79.188 201.426,78.603 201.426,77.742L201.426,72.782ZM203.617,78.196L210.839,78.196L210.839,72.239L203.617,72.239L203.617,78.196ZM205.915,69.558L207.731,66.477L209.708,66.477L207.081,69.558L205.915,69.558Z" style="fill:rgb(89,90,92);fill-rule:nonzero;"/>
        <path d="M216.647,79.969L216.647,70.556L222.702,70.556C224.431,70.556 225.759,70.96 226.687,71.767C227.616,72.575 228.081,73.72 228.081,75.205C228.081,76.084 227.899,76.875 227.538,77.578C227.175,78.281 226.665,78.835 226.006,79.238C225.597,79.494 225.087,79.679 224.48,79.795C223.871,79.911 223.091,79.969 222.142,79.969L216.647,79.969ZM218.838,78.196L221.669,78.196C223.176,78.196 224.245,77.961 224.875,77.492C225.504,77.023 225.818,76.249 225.818,75.168C225.818,74.207 225.556,73.479 225.035,72.982C224.512,72.487 223.74,72.239 222.719,72.239L218.838,72.239L218.838,78.196Z" style="fill:rgb(89,90,92);fill-rule:nonzero;"/>
    </g>
    <g>
        <path d="M53.938,94.46L59.263,85.048L61.373,85.048L66.769,94.46L64.311,94.46L63.18,92.403L57.214,92.403L56.119,94.46L53.938,94.46ZM58.149,90.702L62.272,90.702L60.242,86.874L58.149,90.702Z" style="fill:rgb(89,90,92);fill-rule:nonzero;"/>
        <path d="M76.647,86.695L70.485,86.695L70.485,88.716L76.353,88.716C77.273,88.716 77.895,88.873 78.218,89.188C78.542,89.502 78.703,90.087 78.703,90.942L78.703,92.234C78.703,93.088 78.541,93.673 78.218,93.988C77.895,94.302 77.273,94.46 76.353,94.46L70.539,94.46C69.619,94.46 68.997,94.303 68.673,93.988C68.35,93.674 68.188,93.089 68.188,92.234L68.188,91.975L70.12,91.575L70.12,92.688L76.771,92.688L76.771,90.542L70.903,90.542C69.988,90.542 69.371,90.385 69.051,90.07C68.73,89.756 68.57,89.171 68.57,88.316L68.57,87.274C68.57,86.42 68.73,85.835 69.051,85.52C69.371,85.206 69.989,85.047 70.903,85.047L76.245,85.047C77.129,85.047 77.74,85.198 78.075,85.501C78.41,85.804 78.578,86.342 78.578,87.113L78.578,87.308L76.646,87.762L76.646,86.695L76.647,86.695Z" style="fill:rgb(89,90,92);fill-rule:nonzero;"/>
        <path d="M88.336,94.462L88.336,85.048L96.385,85.048C97.133,85.048 97.675,85.193 98.01,85.481C98.345,85.769 98.513,86.233 98.513,86.875L98.513,88.976C98.513,89.612 98.346,90.073 98.01,90.361C97.674,90.649 97.133,90.793 96.385,90.793L90.49,90.793L90.49,94.462L88.336,94.462ZM95.415,86.677L90.491,86.677L90.491,89.17L95.415,89.17C95.795,89.17 96.055,89.115 96.194,89.005C96.333,88.896 96.403,88.701 96.403,88.422L96.403,87.416C96.403,87.143 96.333,86.951 96.194,86.842C96.055,86.732 95.795,86.677 95.415,86.677Z" style="fill:rgb(89,90,92);fill-rule:nonzero;"/>
        <path d="M100.904,94.462L100.904,85.048L108.953,85.048C109.701,85.048 110.243,85.193 110.578,85.481C110.913,85.769 111.081,86.233 111.081,86.875L111.081,89.083C111.081,89.718 110.914,90.181 110.578,90.472C110.242,90.763 109.701,90.909 108.953,90.909L107.724,90.909L112.069,94.462L108.926,94.462L105.133,90.909L103.058,90.909L103.058,94.462L100.904,94.462ZM107.982,86.677L103.058,86.677L103.058,89.295L107.982,89.295C108.362,89.295 108.622,89.239 108.761,89.13C108.9,89.021 108.97,88.826 108.97,88.547L108.97,87.416C108.97,87.143 108.9,86.951 108.761,86.842C108.622,86.732 108.362,86.677 107.982,86.677Z" style="fill:rgb(89,90,92);fill-rule:nonzero;"/>
        <path d="M114.344,87.274C114.344,86.42 114.505,85.835 114.825,85.52C115.146,85.206 115.763,85.047 116.677,85.047L123.605,85.047C124.519,85.047 125.136,85.205 125.458,85.52C125.778,85.834 125.938,86.419 125.938,87.274L125.938,92.234C125.938,93.094 125.778,93.68 125.458,93.992C125.137,94.304 124.52,94.46 123.605,94.46L116.677,94.46C115.763,94.46 115.146,94.304 114.825,93.992C114.505,93.68 114.344,93.095 114.344,92.234L114.344,87.274ZM116.534,92.688L123.757,92.688L123.757,86.731L116.534,86.731L116.534,92.688Z" style="fill:rgb(89,90,92);fill-rule:nonzero;"/>
        <path d="M129.565,94.461L129.565,85.048L135.62,85.048C137.348,85.048 138.676,85.452 139.604,86.259C140.534,87.067 140.998,88.212 140.998,89.697C140.998,90.576 140.817,91.367 140.455,92.07C140.093,92.773 139.583,93.327 138.923,93.73C138.515,93.986 138.005,94.171 137.397,94.287C136.789,94.403 136.009,94.461 135.06,94.461L129.565,94.461ZM131.755,92.688L134.586,92.688C136.094,92.688 137.162,92.453 137.792,91.984C138.421,91.515 138.736,90.741 138.736,89.66C138.736,88.699 138.474,87.971 137.952,87.474C137.43,86.979 136.658,86.731 135.637,86.731L131.755,86.731L131.755,92.688Z" style="fill:rgb(89,90,92);fill-rule:nonzero;"/>
        <path d="M146.219,85.048L146.219,92.689L152.461,92.689L152.461,85.048L154.643,85.048L154.643,92.235C154.643,93.095 154.482,93.681 154.162,93.993C153.842,94.305 153.224,94.461 152.309,94.461L146.362,94.461C145.454,94.461 144.838,94.305 144.514,93.993C144.19,93.681 144.029,93.096 144.029,92.235L144.029,85.048L146.219,85.048Z" style="fill:rgb(89,90,92);fill-rule:nonzero;"/>
        <path d="M158.475,94.461L158.475,85.048L160.683,85.048L160.683,88.975L165.901,85.048L169.071,85.048L162.839,89.483L169.837,94.461L166.319,94.461L160.683,90.32L160.683,94.461L158.475,94.461Z" style="fill:rgb(89,90,92);fill-rule:nonzero;"/>
        <path d="M175.7,86.731L175.7,94.46L173.51,94.46L173.51,86.731L169.191,86.731L169.191,85.047L180.037,85.047L180.037,86.731L175.7,86.731Z" style="fill:rgb(89,90,92);fill-rule:nonzero;"/>
    </g>
    <g>
        <g>
            <g>
                <g>
                    <path d="M75.501,13.405C83.001,13.405 89.079,19.485 89.079,26.986C89.079,34.485 83.001,40.565 75.501,40.565C68.001,40.565 61.925,34.485 61.923,26.986C61.925,19.485 68.001,13.405 75.501,13.405M75.501,36.357C80.676,36.349 84.864,32.16 84.872,26.985C84.864,21.809 80.676,17.622 75.501,17.611C70.327,17.621 66.14,21.808 66.13,26.985C66.14,32.16 70.327,36.349 75.501,36.357" style="fill:rgb(6,81,160);fill-rule:nonzero;"/>
                </g>
            </g>
        </g>
        <g>
            <path d="M208.295,38.827L208.295,45.681L208.484,47.235L208.981,48.758L209.76,50.162L210.803,51.392L212.052,52.398L213.479,53.144L215.018,53.603L216.622,53.756L218.222,53.603L219.762,53.144L221.187,52.398L222.436,51.394L223.48,50.162L224.26,48.762L224.76,47.233L224.937,45.78L224.953,45.596L224.951,21.819L224.574,16.794L223.193,11.821L221.312,8.477L218.853,5.581L215.894,3.215L212.529,1.456L208.89,0.371L201.111,0L197.331,0.358L193.691,1.43L190.327,3.18L187.355,5.542L184.887,8.424L183.006,11.745L181.807,15.614L181.422,18.989L170.77,18.989L170.773,7.34L170.406,5.745L169.753,4.271L168.835,2.955L167.673,1.83L166.325,0.954L164.829,0.349L163.249,0.042L161.636,0.042L160.056,0.351L158.565,0.955L157.218,1.831L156.058,2.954L155.134,4.27L154.482,5.745L154.119,7.338L154.114,36.4L154.032,36.797L153.874,37.174L153.642,37.519L153.353,37.806L153.009,38.035L152.63,38.193L152.233,38.272L151.819,38.274L151.418,38.195L151.041,38.043L150.692,37.814L150.402,37.531L150.168,37.19L150.008,36.815L149.924,36.43L149.926,7.279L149.541,5.677L148.879,4.218L147.953,2.911L146.791,1.804L145.436,0.931L143.947,0.339L142.37,0.041L140.761,0.045L139.191,0.359L137.698,0.964L136.358,1.839L135.201,2.963L134.285,4.279L133.635,5.745L133.272,7.336L133.272,36.351L133.204,36.745L133.07,37.11L132.88,37.428L132.622,37.721L132.319,37.955L131.973,38.133L131.611,38.24L131.221,38.282L130.844,38.251L130.473,38.149L130.125,37.982L129.816,37.754L129.555,37.472L129.349,37.145L129.208,36.792L129.136,36.421L129.136,7.344L128.768,5.744L128.117,4.276L127.198,2.958L126.039,1.836L124.684,0.955L123.193,0.351L121.613,0.044L120.003,0.044L118.419,0.353L116.931,0.957L115.582,1.836L114.42,2.956L113.5,4.276L112.848,5.746L112.484,7.346L112.484,18.992L101.528,18.992L100.417,15.956L98.444,12.355L95.478,8.58L91.9,5.379L87.814,2.854L83.348,1.083L78.64,0.127L73.842,0.01L69.103,0.733L64.568,2.278L60.378,4.588L56.647,7.604L53.504,11.221L51.047,15.328L49.654,18.991L29.269,18.991L26.961,18.504L24.302,17.023L37.696,17.023L37.696,12.943L21.678,12.943L21.399,12.933L21.261,12.929L20.792,13L20.665,13.02L20.224,13.169L20.093,13.212L19.681,13.443L19.573,13.506L19.209,13.807L19.099,13.896L18.799,14.257L18.711,14.363L18.482,14.767L18.418,14.881L18.264,15.319L18.218,15.452L18.147,15.919L18.129,16.05L18.141,16.515L18.143,16.659L18.241,17.109L18.288,17.327L18.629,17.942L18.692,18.058L19.076,18.527L19.158,18.629L19.617,19.025L19.713,19.11L20.235,19.421L25.439,22.324L27.199,22.79L28.929,23.069L50.346,23.069L50.808,23.008L50.954,22.987L51.436,22.822L51.568,22.779L52.007,22.531L52.132,22.462L52.524,22.127L52.636,22.031L52.948,21.643L53.1,21.452L54.656,17.261L56.743,13.723L59.413,10.616L62.591,8.03L66.175,6.039L70.052,4.713L74.103,4.092L78.184,4.193L82.184,5.006L85.978,6.509L89.457,8.658L92.499,11.38L95.02,14.6L96.728,17.732L98.06,21.449L98.45,21.93L98.535,22.034L98.923,22.365L99.084,22.502L99.943,22.89L100.136,22.977L100.713,23.057L100.811,23.071L116.556,23.071L116.556,7.759L116.737,6.999L117.075,6.256L117.548,5.588L118.147,5.018L118.835,4.577L119.587,4.273L120.394,4.119L121.214,4.119L122.018,4.273L122.78,4.579L123.468,5.021L124.06,5.588L124.533,6.252L124.875,7.004L125.059,7.763L125.059,36.758L125.241,37.747L125.265,37.886L125.627,38.824L125.676,38.953L126.28,39.932L127.058,40.782L127.977,41.471L129.014,41.981L129.989,42.245L130.123,42.283L131.125,42.366L131.267,42.378L132.275,42.271L132.413,42.256L133.378,41.971L133.511,41.929L134.534,41.4L135.438,40.69L136.196,39.828L136.781,38.837L137.126,37.888L137.171,37.754L137.333,36.759L137.353,36.639L137.353,7.755L137.535,7.004L137.873,6.256L138.347,5.591L138.934,5.029L139.623,4.581L140.377,4.275L141.183,4.117L141.993,4.115L142.8,4.265L143.563,4.565L144.25,5.002L144.848,5.564L145.327,6.226L145.671,6.964L145.859,7.714L145.859,36.79L146.049,37.775L146.073,37.904L146.444,38.845L146.496,38.974L147.104,39.942L147.876,40.779L148.786,41.46L149.816,41.966L150.776,42.237L150.913,42.275L151.909,42.365L152.054,42.377L153.05,42.279L153.179,42.266L154.147,41.991L154.284,41.951L155.305,41.439L156.217,40.748L156.981,39.911L157.583,38.94L157.947,38.002L157.997,37.875L158.184,36.889L158.208,36.744L158.21,7.76L158.387,7L158.731,6.246L159.2,5.586L159.792,5.021L160.483,4.575L161.239,4.271L162.046,4.117L162.863,4.117L163.667,4.271L164.431,4.577L165.119,5.019L165.711,5.586L166.185,6.253L166.525,6.996L166.71,7.763L166.71,23.069L185.45,23.069L185.45,19.762L185.827,16.46L186.784,13.368L188.259,10.767L190.21,8.484L192.565,6.614L195.239,5.225L198.12,4.376L201.115,4.089L208.112,4.382L210.993,5.238L213.653,6.629L216.01,8.507L217.959,10.793L219.416,13.379L220.56,17.511L220.885,21.901L220.885,45.491L220.779,46.344L220.523,47.124L220.124,47.838L219.598,48.459L218.958,48.972L218.228,49.355L217.451,49.584L216.637,49.661L215.823,49.584L215.042,49.352L214.321,48.973L213.68,48.462L213.151,47.837L212.755,47.123L212.497,46.342L212.391,45.492L212.406,38.31L212.373,38.126C212.34,37.982 212.223,37.296 211.705,36.441C211.235,35.609 210.01,34.476 208.308,34.484L202.914,34.482L202.914,38.584L208.209,38.584C208.236,38.627 208.274,38.696 208.301,38.766" style="fill:rgb(6,81,160);fill-rule:nonzero;"/>
            <path d="M202.894,29.916C202.911,29.916 207.381,29.912 207.779,29.912C207.972,29.912 208.161,29.914 208.217,29.916L208.318,29.918L208.339,29.916C209.983,29.928 211.189,28.859 211.661,28.062C212.183,27.24 212.308,26.577 212.345,26.434L212.372,26.228L212.372,20.616L212.093,19.217L211.548,17.907L210.753,16.72L209.751,15.72L208.568,14.93L207.255,14.389L205.859,14.112L200.442,14.112L199.046,14.389L197.732,14.932L196.552,15.719L195.546,16.722L194.755,17.905L194.212,19.213L193.932,20.609L193.924,45.5L193.801,46.36L193.537,47.131L193.125,47.846L192.59,48.469L191.941,48.979L191.212,49.356L190.423,49.586L189.61,49.661L188.793,49.584L188,49.35L187.273,48.975L186.627,48.462L186.088,47.837L185.682,47.125L185.416,46.349L185.297,45.494L185.375,31.681L166.697,31.681L166.697,36.632L166.572,39.087L166.012,41.38L165.033,43.524L163.658,45.45L161.943,47.087L159.723,48.545L157.272,49.604L154.684,50.222L152.009,50.389L149.303,50.139L146.725,49.382L144.288,48.12L143.423,47.539L141.594,45.99L139.141,48.108L136.363,49.358L133.326,50.137L130.18,50.389L127.754,50.239L125.439,49.637L123.281,48.606L121.359,47.182L119.702,45.371L118.265,43.436L117.263,41.322L116.7,39.073L116.572,36.614L116.546,31.68L100.834,31.68L100.32,31.763L100.191,31.782L99.691,31.959L99.57,32.001L99.108,32.26L98.998,32.321L98.582,32.662L98.475,32.749L98.134,33.153L97.971,33.341L96.293,37.611L94.073,41.185L91.243,44.297L87.898,46.844L84.15,48.744L80.121,49.937L75.921,50.381L72.33,50.193L68.822,49.437L65.475,48.126L62.378,46.305L59.614,44.01L56.905,40.941L54.792,37.462L53.188,33.316L52.805,32.837L52.715,32.725L52.309,32.381L52.195,32.285L51.733,32.031L51.608,31.962L51.106,31.798L50.97,31.754L50.449,31.691L50.359,31.68L41.949,31.688L38.41,31.692L39.291,35.513L39.425,37.451L39.305,39.361L38.907,41.215L38.239,42.98L37.309,44.58L36.127,46.016L34.737,47.222L33.156,48.197L31.457,48.888L28.393,49.495L25.159,49.67L10.94,49.67L10.13,49.556L9.401,49.301L8.733,48.92L8.143,48.41L7.666,47.803L7.312,47.115L7.093,46.37L7.021,45.6L7.093,44.83L7.312,44.085L7.664,43.404L8.145,42.79L8.726,42.286L9.399,41.9L10.13,41.646L10.93,41.532L25.094,41.532L26.502,41.48L27.926,41.23L29.638,40.688L30.206,39.989L30.291,39.883L30.574,39.359L30.641,39.234L30.818,38.668L30.859,38.529L30.926,37.94L30.941,37.794L30.893,37.207L30.882,37.063L30.72,36.488L30.681,36.346L30.417,35.824L30.354,35.697L29.993,35.224L29.96,35.18L29.05,34.176L27.933,33.209L16.081,27.214L14.16,25.93L12.553,24.343L11.277,22.486L10.371,20.418L9.873,18.215L9.8,15.958L10.152,13.734L10.921,11.616L12.081,9.669L13.582,7.984L15.377,6.609L17.391,5.603L19.567,4.995L21.893,4.802L37.697,4.802L37.697,0.722L21.778,0.722L18.833,0.967L15.909,1.789L13.198,3.145L10.795,4.986L8.773,7.256L7.224,9.86L6.188,12.72L5.713,15.716L5.815,18.748L6.487,21.705L7.702,24.483L9.423,26.982L11.587,29.11L14.066,30.761L25.667,36.631L26.235,37.136L26.438,37.361L26.405,37.369L25.061,37.452L10.704,37.452L9.198,37.662L7.729,38.164L6.374,38.94L5.195,39.957L4.231,41.178L3.518,42.556L3.077,44.053L2.93,45.601L3.077,47.152L3.516,48.641L4.231,50.023L5.193,51.246L6.376,52.266L7.726,53.037L9.195,53.539L10.698,53.752L25.237,53.752L28.919,53.548L32.628,52.812L34.987,51.857L37.146,50.53L39.054,48.87L40.665,46.921L41.933,44.729L42.823,42.388L43.351,39.935L43.507,37.469L43.432,35.768L49.752,35.765L51.179,39.392L53.65,43.423L56.769,46.953L60.034,49.66L63.689,51.812L67.638,53.356L71.786,54.252L76.022,54.476L80.89,53.96L85.602,52.573L89.995,50.364L93.914,47.401L97.239,43.782L99.856,39.628L101.41,35.766L112.489,35.766L112.495,36.657L112.495,36.686L112.649,39.687L113.409,42.704L114.735,45.519L116.544,47.965L118.648,50.252L121.191,52.127L124.045,53.487L127.104,54.281L130.222,54.474L134.045,54.162L137.775,53.196L141.341,51.58L141.704,51.287L142.1,51.563L142.179,51.615L145.207,53.185L148.535,54.16L151.955,54.474L155.295,54.266L158.57,53.483L161.664,52.144L164.477,50.296L166.737,48.142L168.565,45.584L169.869,42.742L170.617,39.7L170.768,36.701L170.768,35.761L177.14,35.763L181.274,35.763L181.216,45.721L181.423,47.266L181.938,48.791L182.73,50.185L183.775,51.403L185.035,52.402L186.459,53.144L187.998,53.601L189.602,53.756L191.199,53.606L192.738,53.152L194.174,52.411L195.428,51.418L196.475,50.2L197.273,48.806L197.79,47.287L198.003,45.734L198.009,20.974L198.134,20.38L198.376,19.815L198.724,19.307L199.162,18.873L199.68,18.532L200.241,18.303L200.85,18.184L205.465,18.184L206.064,18.303L206.633,18.535L207.152,18.876L207.585,19.304L207.932,19.814L208.173,20.381L208.3,20.973L208.29,25.703C208.272,25.742 208.253,25.782 208.234,25.812C208.107,25.811 207.954,25.809 207.782,25.809C207.364,25.809 202.899,25.813 202.897,25.813L202.894,29.916Z" style="fill:rgb(6,81,160);fill-rule:nonzero;"/>
            <path d="M200.467,32.202" style="fill:none;fill-rule:nonzero;"/>
        </g>
    </g>
</svg>
